<svg width="20" height="20" viewBox="0 0 20 20" fill="none" xmlns="http://www.w3.org/2000/svg">
  <path d="M10.001 0C15.5238 0 20.001 4.47715 20.001 10C20.001 15.5228 15.5238 20 10.001 20C4.47813 20 0.000976562 15.5228 0.000976562 10C0.000976562 4.47715 4.47813 0 10.001 0ZM10.001 1.5C5.30656 1.5 1.50098 5.30558 1.50098 10C1.50098 14.6944 5.30656 18.5 10.001 18.5C14.6954 18.5 18.501 14.6944 18.501 10C18.501 5.30558 14.6954 1.5 10.001 1.5ZM9.648 5.55308L9.7206 5.46897C9.9869 5.2027 10.4036 5.17849 10.6972 5.39635L10.7813 5.46897L14.7821 9.4698C15.0484 9.7361 15.0726 10.1528 14.8547 10.4464L14.782 10.5306L10.7805 14.5306C10.4876 14.8234 10.0127 14.8233 9.7198 14.5303C9.4536 14.264 9.4295 13.8474 9.6474 13.5538L9.72 13.4697L12.442 10.749L5.75027 10.7493C5.37058 10.7493 5.05678 10.4671 5.00712 10.1011L5.00027 9.9993C5.00027 9.6196 5.28243 9.3058 5.6485 9.2561L5.75027 9.2493L12.44 9.249L9.7206 6.52963C9.4544 6.26336 9.4302 5.8467 9.648 5.55308Z" fill="#564FCC"/>
</svg>
