<svg width="792" height="431" viewBox="0 0 792 431" fill="none" xmlns="http://www.w3.org/2000/svg">
  <g clip-path="url(#clip0_1_767)">
    <path fill-rule="evenodd" clip-rule="evenodd" d="M575.933 15.0612C627.281 53.8861 620.822 133.908 614.002 198.178C608.166 253.178 582.385 303.023 541.535 339.234C504.27 372.269 454.778 379.596 405.238 383.239C351.534 387.187 294.994 392.839 251.104 360.587C201.885 324.419 163.444 267.447 164.094 206.038C164.729 146.011 206.926 95.3637 254.285 59.9905C294.32 30.0867 346.255 39.9804 395.655 33.0801C457.817 24.397 525.259 -23.2553 575.933 15.0612Z" fill="#BEBBF6"/>
  </g>
  <g clip-path="url(#clip1_1_767)">
    <path d="M737.708 134.58C739.546 126.931 737.798 118.009 731.861 112.978C731.745 121.542 728.665 129.788 723.165 136.258C721.035 138.745 718.412 141.285 718.309 144.586C718.245 146.641 719.227 148.614 720.581 150.135C721.935 151.657 723.643 152.795 725.331 153.917L725.579 154.363C731.012 148.77 735.87 142.23 737.708 134.58Z" fill="#F0F0F0"/>
    <path d="M731.742 113.089C734.019 119.18 734.357 125.849 732.71 132.147C732.379 133.51 731.839 134.81 731.111 136.001C730.365 137.138 729.335 138.05 728.127 138.643C727.011 139.219 725.805 139.676 724.846 140.518C724.361 140.957 723.973 141.495 723.706 142.098C723.44 142.701 723.301 143.354 723.3 144.015C723.253 145.662 723.79 147.228 724.366 148.741C725.007 150.421 725.698 152.155 725.55 153.994C725.532 154.217 725.871 154.232 725.889 154.009C726.147 150.81 724.018 148.107 723.68 145.004C723.523 143.556 723.792 142.051 724.841 140.995C725.758 140.072 727.002 139.599 728.136 139.026C729.323 138.466 730.357 137.617 731.148 136.554C731.933 135.405 732.521 134.128 732.886 132.777C733.756 129.75 734.154 126.603 734.066 123.449C733.984 119.85 733.3 116.292 732.043 112.928C731.965 112.72 731.665 112.883 731.742 113.089Z" fill="white"/>
    <path d="M733.357 130.151C734.43 130.29 735.516 130.035 736.422 129.432C737.328 128.828 737.994 127.916 738.302 126.858C738.363 126.643 738.04 126.536 737.978 126.75C737.693 127.736 737.073 128.586 736.228 129.146C735.384 129.706 734.371 129.94 733.373 129.804C733.156 129.775 733.141 130.122 733.357 130.151Z" fill="white"/>
    <path d="M728.73 138.427C727.36 136.656 726.694 134.423 726.866 132.173C726.883 131.951 726.543 131.935 726.526 132.158C726.352 134.499 727.049 136.821 728.479 138.661C728.615 138.836 728.866 138.601 728.73 138.427Z" fill="white"/>
    <path d="M733.574 120.043C733.148 120.077 732.721 120.003 732.329 119.828C731.938 119.652 731.596 119.379 731.333 119.035C731.199 118.858 730.949 119.094 731.082 119.269C731.374 119.648 731.752 119.948 732.184 120.144C732.616 120.339 733.088 120.423 733.559 120.389C733.604 120.39 733.647 120.373 733.68 120.343C733.713 120.312 733.733 120.269 733.737 120.224C733.738 120.178 733.722 120.133 733.692 120.099C733.662 120.065 733.619 120.045 733.574 120.043Z" fill="white"/>
    <path d="M706.187 117.93C706.268 118.043 706.349 118.156 706.428 118.271C707.505 119.795 708.459 121.405 709.281 123.087C709.346 123.216 709.411 123.348 709.473 123.478C711.409 127.551 712.589 131.955 712.95 136.466C713.092 138.262 713.101 140.066 712.975 141.862C712.801 144.344 712.419 147.02 713.04 149.347C713.102 149.59 713.179 149.83 713.27 150.063L725.026 154.637C725.058 154.634 725.089 154.633 725.121 154.63L725.582 154.834C725.595 154.742 725.606 154.646 725.619 154.554C725.627 154.501 725.632 154.446 725.64 154.393C725.644 154.357 725.648 154.321 725.654 154.289C725.655 154.277 725.657 154.265 725.657 154.255C725.663 154.223 725.665 154.193 725.67 154.163C725.735 153.627 725.797 153.09 725.854 152.551C725.855 152.548 725.855 152.548 725.854 152.545C726.333 148.444 726.334 144.3 725.857 140.199C725.841 140.076 725.826 139.952 725.805 139.827C725.558 137.998 725.164 136.193 724.629 134.429C724.333 133.464 723.989 132.515 723.599 131.585C722.586 129.186 721.21 126.964 719.521 125.001C716.153 121.089 711.596 118.319 706.571 117.954C706.443 117.944 706.317 117.936 706.187 117.93Z" fill="#F0F0F0"/>
    <path d="M706.157 118.092C711.568 121.557 715.772 126.673 718.172 132.714C718.711 134.006 719.048 135.376 719.169 136.774C719.244 138.14 718.959 139.501 718.344 140.717C717.793 141.862 717.1 142.968 716.831 144.23C716.703 144.879 716.71 145.547 716.853 146.192C716.996 146.837 717.27 147.443 717.659 147.972C718.594 149.316 719.946 150.237 721.299 151.09C722.801 152.038 724.376 152.998 725.342 154.557C725.459 154.746 725.74 154.55 725.623 154.361C723.941 151.648 720.647 150.799 718.546 148.528C717.566 147.469 716.893 146.102 717.108 144.614C717.296 143.313 718.01 142.172 718.578 141.017C719.195 139.84 719.52 138.527 719.525 137.192C719.474 135.792 719.19 134.412 718.684 133.109C717.593 130.158 716.054 127.4 714.123 124.937C711.935 122.113 709.29 119.692 706.302 117.778C706.117 117.66 705.973 117.975 706.157 118.092Z" fill="white"/>
    <path d="M717.511 130.723C718.45 130.174 719.167 129.303 719.534 128.265C719.901 127.226 719.895 126.089 719.516 125.055C719.439 124.846 719.117 124.959 719.195 125.168C719.549 126.13 719.555 127.19 719.211 128.156C718.867 129.122 718.196 129.931 717.319 130.436C717.129 130.546 717.322 130.832 717.511 130.723Z" fill="white"/>
    <path d="M718.699 140.174C716.56 139.602 714.711 138.228 713.521 136.326C713.403 136.138 713.123 136.334 713.24 136.523C714.483 138.499 716.409 139.925 718.636 140.515C718.848 140.571 718.91 140.23 718.699 140.174Z" fill="white"/>
    <path d="M711.722 122.518C711.402 122.808 711.017 123.011 710.601 123.111C710.185 123.211 709.751 123.204 709.338 123.091C709.127 123.032 709.066 123.374 709.276 123.432C709.732 123.555 710.211 123.563 710.671 123.453C711.131 123.344 711.558 123.121 711.914 122.804C711.95 122.777 711.975 122.738 711.983 122.693C711.991 122.648 711.982 122.602 711.958 122.563C711.933 122.525 711.893 122.499 711.849 122.491C711.805 122.483 711.759 122.492 711.722 122.518Z" fill="white"/>
    <path d="M690.643 290.725C651.228 290.725 619.161 257.997 619.161 217.77C619.161 177.542 651.228 144.814 690.643 144.814C694.81 144.814 698.969 145.182 703.074 145.914C703.125 145.923 703.174 145.942 703.218 145.97C703.262 145.999 703.3 146.035 703.329 146.079C703.359 146.122 703.381 146.171 703.392 146.223C703.403 146.275 703.404 146.328 703.395 146.38C703.386 146.433 703.367 146.482 703.34 146.527C703.312 146.572 703.275 146.611 703.233 146.641C703.19 146.671 703.142 146.693 703.092 146.704C703.041 146.716 702.988 146.717 702.937 146.708C698.878 145.984 694.764 145.62 690.643 145.62C651.663 145.62 619.951 177.986 619.951 217.77C619.951 257.553 651.663 289.919 690.643 289.919C729.622 289.919 761.334 257.553 761.334 217.77C761.352 199.788 754.773 182.451 742.893 169.172C742.823 169.093 742.787 168.989 742.792 168.882C742.797 168.776 742.843 168.676 742.92 168.604C742.997 168.533 743.099 168.495 743.204 168.499C743.308 168.504 743.406 168.551 743.477 168.629C755.489 182.056 762.142 199.587 762.124 217.77C762.124 257.997 730.058 290.725 690.643 290.725Z" fill="#E4E4E4"/>
    <path d="M722.161 169.835C729.971 169.835 736.303 163.373 736.303 155.401C736.303 147.429 729.971 140.967 722.161 140.967C714.35 140.967 708.018 147.429 708.018 155.401C708.018 163.373 714.35 169.835 722.161 169.835Z" fill="#6C63FF"/>
    <path d="M720.231 162.913C719.987 162.913 719.746 162.855 719.528 162.744C719.309 162.632 719.119 162.47 718.973 162.271L715.114 157.02C714.99 156.852 714.9 156.66 714.849 156.456C714.798 156.251 714.786 156.039 714.816 155.83C714.845 155.621 714.914 155.42 715.019 155.239C715.125 155.058 715.264 154.899 715.429 154.773C715.594 154.646 715.782 154.554 715.983 154.502C716.183 154.449 716.391 154.438 716.595 154.468C716.8 154.498 716.997 154.568 717.174 154.676C717.352 154.783 717.508 154.925 717.631 155.094L720.156 158.529L726.639 148.603C726.871 148.251 727.231 148.006 727.639 147.923C728.048 147.841 728.471 147.927 728.818 148.162C729.164 148.398 729.405 148.764 729.487 149.181C729.57 149.597 729.487 150.03 729.257 150.385L721.54 162.198C721.401 162.412 721.213 162.588 720.993 162.713C720.773 162.837 720.526 162.906 720.275 162.913C720.26 162.913 720.246 162.913 720.231 162.913Z" fill="white"/>
    <path d="M688.804 206.448L666.994 144.524L667.547 144.321L663.537 132.932L662.983 133.135L656.287 114.122C656.037 113.412 655.652 112.759 655.155 112.201C654.658 111.643 654.058 111.19 653.389 110.868C652.72 110.546 651.996 110.362 651.257 110.326C650.519 110.29 649.78 110.403 649.085 110.659L609.658 125.123C608.963 125.378 608.323 125.771 607.776 126.278C607.229 126.786 606.785 127.398 606.47 128.081C606.155 128.763 605.974 129.503 605.939 130.256C605.904 131.01 606.014 131.764 606.265 132.474L610.933 145.73L610.06 146.074L613.04 153.973L613.74 153.698L614.358 155.455L613.614 155.747L616.594 163.646L617.164 163.422L638.781 224.799C639.03 225.51 639.414 226.164 639.911 226.723C640.408 227.282 641.008 227.736 641.678 228.057C642.347 228.379 643.072 228.563 643.811 228.598C644.549 228.634 645.288 228.52 645.984 228.263L685.41 213.799C686.814 213.282 687.96 212.217 688.596 210.839C689.232 209.461 689.307 207.882 688.804 206.448Z" fill="#3F3D56"/>
    <path d="M643.91 226.222C643.355 226.221 642.814 226.045 642.36 225.719C641.906 225.393 641.561 224.932 641.373 224.398L608.513 131.099C608.271 130.411 608.307 129.654 608.612 128.994C608.917 128.333 609.466 127.823 610.14 127.576L618.528 124.499L618.516 124.798C618.494 125.318 618.598 125.836 618.819 126.305C619.039 126.774 619.37 127.181 619.78 127.489C620.191 127.798 620.67 127.998 621.175 128.073C621.679 128.148 622.194 128.095 622.674 127.919L641.291 121.089C641.741 120.879 642.135 120.564 642.443 120.169C642.751 119.774 642.964 119.311 643.064 118.817C643.162 118.331 643.147 117.829 643.02 117.35C642.892 116.871 642.655 116.43 642.329 116.062L642.132 115.839L650.797 112.66C651.471 112.414 652.212 112.451 652.859 112.762C653.506 113.073 654.006 113.634 654.248 114.32L685.599 203.336C686.239 205.16 686.144 207.168 685.335 208.92C684.526 210.672 683.069 212.025 681.284 212.682L644.824 226.058C644.531 226.166 644.222 226.222 643.91 226.222Z" fill="white"/>
    <path d="M640.698 160.046C646.587 160.046 651.361 155.174 651.361 149.163C651.361 143.153 646.587 138.281 640.698 138.281C634.809 138.281 630.035 143.153 630.035 149.163C630.035 155.174 634.809 160.046 640.698 160.046Z" fill="#6C63FF"/>
    <path d="M667.121 164.99L630.194 178.537C630.079 178.579 629.956 178.598 629.834 178.593C629.711 178.587 629.591 178.557 629.48 178.503C629.369 178.45 629.269 178.375 629.187 178.282C629.104 178.19 629.04 178.082 628.999 177.964C628.957 177.846 628.939 177.721 628.945 177.596C628.951 177.471 628.981 177.348 629.033 177.235C629.086 177.122 629.16 177.02 629.25 176.936C629.341 176.852 629.448 176.787 629.563 176.745L666.49 163.198C666.722 163.113 666.978 163.126 667.201 163.234C667.425 163.342 667.597 163.536 667.68 163.773C667.764 164.01 667.752 164.271 667.647 164.499C667.542 164.728 667.353 164.904 667.121 164.99Z" fill="#E6E6E6"/>
    <path d="M656.155 173.579L644.009 178.035C643.893 178.078 643.771 178.097 643.648 178.091C643.526 178.085 643.406 178.055 643.295 178.001C643.184 177.948 643.084 177.873 643.001 177.781C642.919 177.688 642.855 177.58 642.814 177.462C642.772 177.344 642.754 177.219 642.76 177.094C642.766 176.969 642.796 176.846 642.848 176.733C642.9 176.62 642.974 176.519 643.065 176.434C643.156 176.35 643.262 176.285 643.377 176.243L655.524 171.787C655.756 171.702 656.013 171.714 656.237 171.822C656.46 171.93 656.633 172.124 656.717 172.361C656.801 172.599 656.788 172.861 656.683 173.089C656.577 173.317 656.387 173.494 656.155 173.579Z" fill="#E6E6E6"/>
    <path d="M659.044 181.782L646.897 186.238C646.782 186.28 646.66 186.299 646.538 186.293C646.415 186.287 646.295 186.257 646.184 186.203C646.074 186.15 645.974 186.075 645.892 185.982C645.809 185.89 645.746 185.782 645.704 185.664C645.663 185.546 645.644 185.422 645.65 185.297C645.656 185.172 645.686 185.049 645.738 184.936C645.79 184.823 645.864 184.722 645.955 184.638C646.045 184.554 646.151 184.489 646.266 184.446L658.413 179.99C658.645 179.905 658.902 179.917 659.126 180.025C659.349 180.133 659.522 180.326 659.606 180.564C659.69 180.802 659.677 181.063 659.572 181.292C659.466 181.52 659.276 181.697 659.044 181.782Z" fill="#E6E6E6"/>
    <path d="M660.523 185.983L648.377 190.439C648.262 190.482 648.139 190.501 648.017 190.495C647.894 190.49 647.774 190.459 647.663 190.406C647.552 190.353 647.452 190.278 647.37 190.185C647.287 190.092 647.223 189.984 647.182 189.866C647.14 189.748 647.122 189.623 647.128 189.498C647.134 189.373 647.164 189.251 647.216 189.137C647.269 189.024 647.342 188.923 647.433 188.839C647.524 188.755 647.631 188.69 647.746 188.648L659.892 184.192C660.008 184.149 660.13 184.13 660.253 184.136C660.375 184.142 660.495 184.172 660.606 184.225C660.717 184.278 660.817 184.353 660.9 184.446C660.982 184.539 661.046 184.647 661.088 184.765C661.129 184.883 661.147 185.008 661.141 185.133C661.136 185.258 661.106 185.38 661.053 185.493C661.001 185.607 660.927 185.708 660.836 185.792C660.745 185.876 660.639 185.941 660.523 185.983Z" fill="#E6E6E6"/>
    <path d="M664.391 175.124L638.621 184.578C638.505 184.621 638.383 184.64 638.261 184.634C638.138 184.628 638.018 184.598 637.907 184.545C637.796 184.491 637.696 184.416 637.614 184.324C637.531 184.231 637.467 184.123 637.426 184.005C637.384 183.887 637.366 183.762 637.372 183.637C637.378 183.512 637.408 183.389 637.46 183.276C637.512 183.163 637.586 183.062 637.677 182.977C637.768 182.893 637.874 182.828 637.99 182.786L663.76 173.332C663.875 173.29 663.998 173.271 664.12 173.276C664.243 173.282 664.363 173.313 664.474 173.366C664.585 173.419 664.685 173.494 664.767 173.587C664.85 173.679 664.914 173.788 664.955 173.905C664.997 174.023 665.015 174.148 665.009 174.273C665.003 174.398 664.973 174.521 664.921 174.634C664.868 174.747 664.794 174.849 664.703 174.933C664.613 175.017 664.506 175.082 664.391 175.124Z" fill="#E6E6E6"/>
    <path d="M659.2 196.182L654.79 197.8C654.394 197.945 653.958 197.924 653.578 197.741C653.198 197.558 652.904 197.228 652.762 196.824C652.62 196.42 652.64 195.975 652.819 195.587C652.999 195.199 653.321 194.899 653.717 194.754L658.127 193.136C658.523 192.991 658.959 193.012 659.339 193.195C659.719 193.378 660.013 193.708 660.155 194.112C660.297 194.516 660.277 194.96 660.098 195.349C659.918 195.737 659.596 196.037 659.2 196.182Z" fill="#6C63FF"/>
    <path d="M624.446 124.801C624.785 124.801 625.06 124.52 625.06 124.175C625.06 123.829 624.785 123.549 624.446 123.549C624.108 123.549 623.833 123.829 623.833 124.175C623.833 124.52 624.108 124.801 624.446 124.801Z" fill="white"/>
    <path d="M553.913 159.38C560.787 151.122 571.94 145.917 582.223 148.615C572.962 155.652 566.438 165.806 563.806 177.279C562.806 181.707 562.146 186.739 558.623 189.519C556.431 191.248 553.484 191.721 550.73 191.407C547.977 191.093 545.356 190.068 542.771 189.051L542.083 189.129C543.812 178.438 547.039 167.638 553.913 159.38Z" fill="#F0F0F0"/>
    <path d="M582.197 148.841C573.708 151.161 566.151 156.152 560.6 163.105C559.379 164.581 558.393 166.243 557.679 168.031C557.039 169.796 556.874 171.704 557.2 173.557C557.471 175.29 557.944 177.031 557.797 178.802C557.708 179.707 557.433 180.582 556.99 181.371C556.547 182.16 555.945 182.845 555.224 183.38C553.462 184.761 551.319 185.413 549.202 185.976C546.851 186.602 544.4 187.214 542.51 188.865C542.282 189.065 541.991 188.691 542.219 188.491C545.506 185.619 550.175 185.862 553.837 183.744C555.546 182.756 556.973 181.236 557.28 179.192C557.549 177.404 557.063 175.608 556.774 173.855C556.429 172.053 556.523 170.192 557.045 168.435C557.668 166.615 558.589 164.916 559.77 163.412C562.375 159.982 565.492 156.992 569.007 154.55C573.004 151.741 577.443 149.65 582.13 148.369C582.421 148.289 582.485 148.763 582.197 148.841Z" fill="white"/>
    <path d="M562.258 160.759C561.242 159.65 560.645 158.209 560.573 156.692C560.502 155.175 560.962 153.681 561.87 152.478C562.054 152.236 562.432 152.517 562.248 152.76C561.4 153.879 560.972 155.27 561.041 156.682C561.111 158.095 561.672 159.435 562.625 160.462C562.832 160.685 562.464 160.981 562.258 160.759Z" fill="white"/>
    <path d="M556.95 172.696C559.989 172.827 562.964 171.784 565.283 169.776C565.513 169.576 565.804 169.951 565.574 170.15C563.157 172.235 560.058 173.314 556.896 173.171C556.595 173.157 556.65 172.682 556.95 172.696Z" fill="white"/>
    <path d="M573.124 152.362C573.43 152.875 573.856 153.302 574.363 153.605C574.871 153.909 575.444 154.079 576.032 154.1C576.333 154.11 576.278 154.584 575.978 154.574C575.329 154.548 574.696 154.359 574.135 154.026C573.573 153.692 573.101 153.223 572.758 152.659C572.721 152.609 572.705 152.546 572.712 152.484C572.719 152.422 572.749 152.364 572.796 152.324C572.844 152.285 572.906 152.267 572.968 152.274C573.029 152.281 573.085 152.313 573.124 152.362Z" fill="white"/>
    <path d="M597.513 181.819C597.324 181.819 597.136 181.818 596.945 181.82C594.412 181.823 591.884 182.036 589.385 182.457C589.192 182.487 588.996 182.52 588.803 182.555C582.794 183.634 577.033 185.843 571.813 189.069C569.737 190.355 567.76 191.8 565.899 193.392C563.329 195.59 560.714 198.183 557.672 199.352C557.356 199.478 557.033 199.583 556.704 199.668L542.23 189.979C542.208 189.94 542.183 189.904 542.161 189.865L541.566 189.506C541.656 189.417 541.752 189.326 541.842 189.237C541.894 189.186 541.95 189.136 542.002 189.084C542.038 189.05 542.074 189.017 542.104 188.984C542.116 188.973 542.128 188.961 542.138 188.953C542.168 188.921 542.2 188.894 542.228 188.864C542.761 188.358 543.299 187.855 543.84 187.355C543.84 187.355 543.843 187.352 543.848 187.351C547.986 183.55 552.471 180.069 557.331 177.394C557.477 177.313 557.625 177.229 557.778 177.153C559.975 175.96 562.265 174.951 564.623 174.138C565.916 173.697 567.229 173.324 568.559 173.018C571.996 172.236 575.533 172.011 579.039 172.35C586.028 173.028 592.727 175.979 597.177 181.402C597.29 181.54 597.401 181.677 597.513 181.819Z" fill="#6C63FF"/>
    <path d="M597.36 181.985C589.213 178.621 580.235 177.963 571.701 180.103C569.856 180.531 568.088 181.252 566.463 182.242C564.911 183.258 563.653 184.679 562.821 186.359C562.015 187.909 561.366 189.59 560.204 190.913C559.599 191.582 558.863 192.112 558.044 192.469C557.224 192.827 556.34 193.004 555.449 192.988C553.228 193.008 551.132 192.212 549.109 191.361C546.863 190.416 544.545 189.398 542.062 189.555C541.761 189.574 541.75 189.097 542.05 189.078C546.369 188.804 549.953 191.867 554.126 192.427C556.073 192.688 558.11 192.351 559.561 190.907C560.831 189.645 561.502 187.912 562.305 186.335C563.093 184.684 564.265 183.256 565.719 182.174C567.29 181.103 569.027 180.314 570.857 179.838C574.961 178.7 579.214 178.228 583.461 178.439C588.309 178.652 593.086 179.71 597.585 181.567C597.864 181.682 597.636 182.099 597.36 181.985Z" fill="white"/>
    <path d="M574.409 179.249C574.252 177.739 574.626 176.221 575.463 174.966C576.301 173.711 577.549 172.801 578.984 172.398C579.274 172.318 579.411 172.775 579.12 172.856C577.783 173.228 576.621 174.076 575.843 175.246C575.065 176.416 574.722 177.832 574.877 179.237C574.911 179.542 574.443 179.553 574.409 179.249Z" fill="white"/>
    <path d="M563.129 185.518C565.478 187.49 568.469 188.486 571.506 188.307C571.807 188.289 571.818 188.767 571.518 188.785C568.357 188.965 565.247 187.922 562.807 185.864C562.574 185.668 562.898 185.323 563.129 185.518Z" fill="white"/>
    <path d="M588.039 179.221C587.98 179.819 588.068 180.421 588.294 180.975C588.521 181.529 588.878 182.017 589.335 182.396C589.57 182.589 589.246 182.934 589.012 182.742C588.51 182.322 588.116 181.782 587.864 181.171C587.613 180.559 587.512 179.894 587.571 179.234C587.571 179.171 587.595 179.111 587.637 179.065C587.68 179.02 587.737 178.992 587.799 178.989C587.861 178.988 587.921 179.011 587.966 179.055C588.01 179.098 588.037 179.158 588.039 179.221Z" fill="white"/>
    <path d="M760.208 318.104C767.703 319.98 776.445 318.196 781.375 312.137C772.983 312.018 764.903 308.875 758.565 303.261C756.128 301.088 753.639 298.411 750.404 298.305C748.392 298.24 746.458 299.243 744.968 300.624C743.477 302.006 742.361 303.75 741.263 305.472L740.825 305.725C746.306 311.27 752.713 316.228 760.208 318.104Z" fill="#F0F0F0"/>
    <path d="M781.265 312.015C775.297 314.339 768.764 314.685 762.592 313.003C761.257 312.665 759.983 312.114 758.816 311.371C757.702 310.61 756.809 309.558 756.228 308.325C755.664 307.187 755.216 305.955 754.39 304.977C753.96 304.482 753.433 304.086 752.843 303.814C752.252 303.542 751.612 303.4 750.964 303.399C749.35 303.351 747.816 303.899 746.334 304.487C744.688 305.141 742.989 305.846 741.187 305.695C740.969 305.677 740.954 306.024 741.172 306.042C744.307 306.305 746.955 304.132 749.995 303.787C751.414 303.626 752.889 303.901 753.923 304.971C754.828 305.908 755.291 307.177 755.852 308.335C756.402 309.546 757.233 310.602 758.274 311.409C759.4 312.211 760.652 312.81 761.975 313.183C764.941 314.071 768.025 314.477 771.114 314.387C774.641 314.304 778.127 313.605 781.423 312.322C781.627 312.243 781.468 311.936 781.265 312.015Z" fill="white"/>
    <path d="M764.548 313.664C764.412 314.759 764.662 315.868 765.253 316.792C765.844 317.716 766.738 318.396 767.775 318.71C767.985 318.773 768.09 318.443 767.88 318.38C766.914 318.089 766.082 317.456 765.533 316.594C764.984 315.732 764.755 314.698 764.888 313.68C764.916 313.458 764.576 313.444 764.548 313.664Z" fill="white"/>
    <path d="M756.439 308.941C758.175 307.543 760.362 306.863 762.567 307.038C762.785 307.056 762.8 306.709 762.582 306.691C760.288 306.514 758.013 307.225 756.21 308.685C756.038 308.824 756.269 309.079 756.439 308.941Z" fill="white"/>
    <path d="M774.452 313.886C774.418 313.451 774.491 313.014 774.663 312.615C774.835 312.216 775.102 311.866 775.439 311.598C775.613 311.461 775.382 311.206 775.21 311.342C774.839 311.64 774.545 312.026 774.353 312.467C774.162 312.907 774.079 313.389 774.112 313.87C774.112 313.916 774.128 313.96 774.158 313.993C774.188 314.027 774.23 314.048 774.275 314.051C774.32 314.053 774.363 314.037 774.397 314.006C774.43 313.975 774.45 313.932 774.452 313.886Z" fill="white"/>
    <path d="M776.522 285.934C776.412 286.016 776.301 286.098 776.188 286.18C774.695 287.279 773.117 288.253 771.47 289.091C771.343 289.158 771.214 289.224 771.086 289.287C767.096 291.263 762.781 292.467 758.36 292.836C756.601 292.981 754.834 292.99 753.073 292.861C750.642 292.683 748.02 292.293 745.74 292.927C745.502 292.991 745.267 293.069 745.038 293.162L740.557 305.161C740.56 305.194 740.561 305.225 740.564 305.258L740.363 305.729C740.454 305.742 740.548 305.753 740.638 305.766C740.69 305.774 740.744 305.779 740.796 305.787C740.831 305.791 740.867 305.796 740.898 305.802C740.91 305.803 740.922 305.805 740.931 305.805C740.962 305.811 740.992 305.813 741.021 305.818C741.546 305.884 742.073 305.947 742.601 306.006C742.603 306.007 742.603 306.007 742.607 306.006C746.625 306.495 750.685 306.496 754.703 306.008C754.823 305.992 754.945 305.977 755.067 305.956C756.86 305.703 758.629 305.302 760.357 304.756C761.302 304.453 762.232 304.103 763.143 303.704C765.494 302.671 767.671 301.266 769.594 299.542C773.427 296.105 776.141 291.454 776.499 286.326C776.508 286.194 776.516 286.066 776.522 285.934Z" fill="#F0F0F0"/>
    <path d="M776.363 285.902C772.969 291.425 767.956 295.716 762.037 298.165C760.771 298.716 759.429 299.059 758.059 299.183C756.721 299.259 755.387 298.969 754.196 298.341C753.074 297.779 751.99 297.071 750.753 296.797C750.118 296.666 749.463 296.674 748.831 296.819C748.2 296.965 747.605 297.245 747.087 297.642C745.77 298.596 744.868 299.976 744.032 301.356C743.103 302.889 742.163 304.497 740.635 305.483C740.45 305.603 740.642 305.889 740.827 305.77C743.485 304.053 744.318 300.691 746.542 298.548C747.58 297.547 748.92 296.86 750.377 297.079C751.652 297.271 752.77 298 753.901 298.58C755.055 299.209 756.341 299.541 757.649 299.546C759.021 299.494 760.374 299.204 761.65 298.688C764.542 297.575 767.244 296.004 769.657 294.033C772.424 291.8 774.796 289.1 776.671 286.051C776.787 285.862 776.478 285.715 776.363 285.902Z" fill="white"/>
    <path d="M763.988 297.491C764.526 298.449 765.379 299.181 766.396 299.555C767.414 299.93 768.528 299.924 769.541 299.537C769.746 299.458 769.635 299.13 769.43 299.209C768.488 299.571 767.449 299.577 766.503 299.226C765.556 298.875 764.764 298.19 764.269 297.295C764.161 297.1 763.881 297.298 763.988 297.491Z" fill="white"/>
    <path d="M754.728 298.703C755.288 296.52 756.634 294.633 758.498 293.418C758.682 293.298 758.49 293.012 758.305 293.132C756.369 294.4 754.972 296.366 754.393 298.639C754.338 298.856 754.673 298.918 754.728 298.703Z" fill="white"/>
    <path d="M772.027 291.582C771.743 291.256 771.543 290.863 771.445 290.438C771.347 290.013 771.354 289.57 771.466 289.149C771.523 288.933 771.189 288.871 771.131 289.086C771.011 289.552 771.003 290.041 771.111 290.51C771.218 290.979 771.436 291.415 771.746 291.778C771.773 291.815 771.812 291.84 771.856 291.849C771.9 291.857 771.945 291.848 771.983 291.824C772.02 291.797 772.045 291.757 772.053 291.712C772.062 291.667 772.052 291.62 772.027 291.582Z" fill="white"/>
    <path d="M790.241 244.579L778.812 264.209L779.247 264.443L775.376 271.932L774.571 271.496L772.027 275.861L772.659 276.232L768.512 283.56L767.794 283.137L730.501 347.192C729.523 348.869 727.933 350.081 726.081 350.562C724.228 351.043 722.264 350.755 720.62 349.76L651.291 307.716C649.648 306.718 648.461 305.095 647.989 303.205C647.517 301.314 647.8 299.309 648.775 297.631L708.516 195.018C709.494 193.342 711.083 192.13 712.936 191.649C714.788 191.167 716.752 191.456 718.397 192.451L787.726 234.495C789.368 235.493 790.554 237.116 791.026 239.006C791.498 240.897 791.215 242.901 790.241 244.579Z" fill="#3F3D56"/>
    <path d="M723.091 345.799L653.518 303.607C653.011 303.299 652.645 302.799 652.5 302.217C652.355 301.634 652.442 301.016 652.742 300.499L712.879 197.203C713.18 196.686 713.671 196.313 714.242 196.164C714.813 196.016 715.418 196.105 715.925 196.412L785.498 238.603C786.004 238.911 786.37 239.411 786.515 239.994C786.661 240.577 786.574 241.195 786.273 241.712L726.137 345.008C725.835 345.524 725.345 345.898 724.774 346.046C724.203 346.194 723.598 346.106 723.091 345.799Z" fill="white"/>
    <path d="M751.67 215.875C752.008 215.875 752.283 215.595 752.283 215.249C752.283 214.903 752.008 214.623 751.67 214.623C751.331 214.623 751.056 214.903 751.056 215.249C751.056 215.595 751.331 215.875 751.67 215.875Z" fill="white"/>
    <path d="M747.874 289.869L689.798 254.65C689.616 254.54 689.456 254.395 689.329 254.223C689.202 254.05 689.11 253.854 689.057 253.645C689.005 253.436 688.993 253.219 689.023 253.005C689.053 252.791 689.124 252.586 689.232 252.401C689.34 252.215 689.483 252.053 689.652 251.924C689.822 251.795 690.014 251.702 690.219 251.649C690.424 251.596 690.638 251.585 690.847 251.616C691.056 251.648 691.257 251.721 691.438 251.832L749.514 287.052C749.697 287.161 749.856 287.306 749.983 287.479C750.11 287.651 750.202 287.847 750.255 288.056C750.307 288.265 750.319 288.483 750.289 288.697C750.259 288.91 750.188 289.115 750.08 289.301C749.972 289.486 749.829 289.648 749.66 289.777C749.49 289.906 749.298 290 749.093 290.053C748.888 290.106 748.675 290.117 748.465 290.085C748.256 290.054 748.055 289.98 747.874 289.869Z" fill="#E6E6E6"/>
    <path d="M724.684 284.412L705.582 272.827C705.4 272.717 705.242 272.572 705.116 272.4C704.989 272.227 704.897 272.031 704.845 271.823C704.793 271.614 704.782 271.397 704.812 271.184C704.842 270.971 704.913 270.766 705.021 270.581C705.129 270.396 705.271 270.234 705.44 270.106C705.609 269.977 705.801 269.883 706.006 269.83C706.21 269.777 706.423 269.765 706.631 269.796C706.84 269.827 707.041 269.899 707.222 270.009L726.325 281.594C726.506 281.704 726.665 281.849 726.791 282.022C726.917 282.194 727.009 282.39 727.061 282.599C727.113 282.807 727.124 283.024 727.094 283.237C727.064 283.45 726.993 283.655 726.885 283.84C726.778 284.025 726.635 284.187 726.466 284.316C726.297 284.445 726.105 284.538 725.901 284.591C725.697 284.644 725.484 284.656 725.275 284.625C725.066 284.594 724.866 284.522 724.684 284.412Z" fill="#E6E6E6"/>
    <path d="M717.174 297.313L698.071 285.728C697.705 285.506 697.44 285.145 697.335 284.724C697.23 284.303 697.293 283.856 697.511 283.482C697.728 283.109 698.082 282.839 698.495 282.731C698.908 282.624 699.345 282.689 699.711 282.91L718.814 294.495C718.996 294.605 719.154 294.75 719.28 294.923C719.406 295.095 719.498 295.291 719.55 295.5C719.602 295.708 719.614 295.925 719.583 296.138C719.553 296.351 719.482 296.556 719.375 296.741C719.267 296.926 719.124 297.088 718.956 297.217C718.787 297.346 718.595 297.439 718.39 297.492C718.186 297.546 717.973 297.557 717.765 297.526C717.556 297.495 717.355 297.423 717.174 297.313Z" fill="#E6E6E6"/>
    <path d="M713.327 303.921L694.224 292.336C694.042 292.226 693.883 292.081 693.757 291.909C693.63 291.737 693.538 291.54 693.485 291.331C693.433 291.123 693.421 290.905 693.452 290.692C693.482 290.479 693.553 290.273 693.66 290.088C693.768 289.903 693.911 289.741 694.08 289.612C694.249 289.483 694.442 289.389 694.647 289.337C694.851 289.284 695.064 289.272 695.273 289.304C695.482 289.335 695.683 289.408 695.864 289.518L714.967 301.103C715.15 301.213 715.309 301.358 715.436 301.53C715.563 301.702 715.655 301.899 715.708 302.108C715.761 302.317 715.772 302.534 715.742 302.748C715.712 302.962 715.641 303.167 715.533 303.352C715.425 303.538 715.282 303.7 715.113 303.829C714.943 303.958 714.751 304.052 714.546 304.104C714.341 304.157 714.128 304.168 713.918 304.137C713.709 304.105 713.508 304.032 713.327 303.921Z" fill="#E6E6E6"/>
    <path d="M731.695 297.269L691.165 272.69C690.801 272.467 690.538 272.106 690.434 271.686C690.33 271.266 690.394 270.82 690.611 270.448C690.828 270.075 691.181 269.805 691.592 269.697C692.003 269.59 692.44 269.653 692.806 269.873L733.336 294.451C733.518 294.561 733.677 294.706 733.804 294.878C733.931 295.051 734.024 295.247 734.076 295.456C734.129 295.665 734.141 295.883 734.111 296.096C734.081 296.31 734.01 296.515 733.902 296.701C733.794 296.886 733.651 297.048 733.481 297.177C733.312 297.306 733.119 297.4 732.914 297.453C732.709 297.506 732.496 297.517 732.287 297.485C732.078 297.454 731.877 297.38 731.695 297.269Z" fill="#E6E6E6"/>
    <path d="M723.97 328.681L717.034 324.475C716.412 324.097 715.963 323.482 715.785 322.766C715.607 322.05 715.715 321.292 716.084 320.657C716.454 320.022 717.055 319.563 717.757 319.38C718.458 319.197 719.201 319.306 719.824 319.683L726.76 323.889C727.383 324.267 727.833 324.881 728.011 325.598C728.19 326.314 728.082 327.073 727.713 327.709C727.343 328.344 726.741 328.803 726.039 328.986C725.337 329.168 724.593 329.058 723.97 328.681Z" fill="#6C63FF"/>
    <path d="M736.911 260.385C744.763 260.385 751.129 253.888 751.129 245.874C751.129 237.861 744.763 231.364 736.911 231.364C729.059 231.364 722.694 237.861 722.694 245.874C722.694 253.888 729.059 260.385 736.911 260.385Z" fill="#6C63FF"/>
    <path d="M503.813 304.84H696.213V191.155C696.212 190.303 695.88 189.487 695.29 188.884C694.7 188.282 693.9 187.943 693.065 187.942H506.961C506.127 187.943 505.326 188.282 504.736 188.884C504.146 189.487 503.814 190.303 503.813 191.155V304.84Z" fill="#CACACA"/>
    <path d="M690.269 192.386H509.758V296.978H690.269V192.386Z" fill="white"/>
    <path d="M503.646 301.763V315.792C503.646 316.374 503.758 316.95 503.976 317.487C504.194 318.024 504.514 318.513 504.917 318.924C505.32 319.335 505.798 319.661 506.324 319.884C506.851 320.106 507.415 320.221 507.985 320.221H578.998V347.907H578.055C577.981 347.907 577.907 347.922 577.839 347.951C577.771 347.98 577.709 348.022 577.656 348.076C577.604 348.129 577.562 348.192 577.534 348.262C577.506 348.332 577.491 348.407 577.491 348.482V350.408C577.491 350.484 577.506 350.558 577.534 350.628C577.562 350.698 577.604 350.761 577.656 350.815C577.709 350.868 577.771 350.911 577.839 350.94C577.907 350.968 577.981 350.983 578.055 350.983H622.139C622.213 350.983 622.286 350.968 622.355 350.94C622.423 350.911 622.485 350.868 622.537 350.815C622.59 350.761 622.631 350.698 622.66 350.628C622.688 350.558 622.703 350.484 622.703 350.408V348.482C622.703 348.407 622.688 348.332 622.66 348.262C622.631 348.192 622.59 348.129 622.537 348.076C622.485 348.022 622.423 347.98 622.355 347.951C622.286 347.922 622.213 347.907 622.139 347.907H621.196V320.221H692.209C692.779 320.221 693.343 320.106 693.869 319.884C694.396 319.661 694.874 319.335 695.277 318.924C695.68 318.513 696 318.024 696.218 317.487C696.436 316.95 696.548 316.374 696.548 315.792V301.763L503.646 301.763Z" fill="#3F3D56"/>
    <path d="M664.148 227.366H578.665C578.127 227.366 577.61 227.147 577.229 226.758C576.848 226.369 576.634 225.842 576.634 225.292C576.634 224.742 576.848 224.214 577.229 223.825C577.61 223.437 578.127 223.218 578.665 223.218H664.148C664.687 223.218 665.204 223.437 665.585 223.825C665.966 224.214 666.18 224.742 666.18 225.292C666.18 225.842 665.966 226.369 665.585 226.758C665.204 227.147 664.687 227.366 664.148 227.366Z" fill="#E6E6E6"/>
    <path d="M635.466 236.727H607.348C606.809 236.727 606.292 236.509 605.911 236.12C605.53 235.731 605.316 235.203 605.316 234.653C605.316 234.103 605.53 233.576 605.911 233.187C606.292 232.798 606.809 232.579 607.348 232.579H635.466C636.005 232.579 636.522 232.798 636.903 233.187C637.284 233.576 637.498 234.103 637.498 234.653C637.498 235.203 637.284 235.731 636.903 236.12C636.522 236.509 636.005 236.727 635.466 236.727Z" fill="#E6E6E6"/>
    <path d="M635.466 255.716H607.348C606.809 255.716 606.292 255.498 605.911 255.109C605.53 254.72 605.316 254.192 605.316 253.642C605.316 253.092 605.53 252.565 605.911 252.176C606.292 251.787 606.809 251.568 607.348 251.568H635.466C636.005 251.568 636.522 251.787 636.903 252.176C637.284 252.565 637.498 253.092 637.498 253.642C637.498 254.192 637.284 254.72 636.903 255.109C636.522 255.498 636.005 255.716 635.466 255.716Z" fill="#E6E6E6"/>
    <path d="M635.466 265.442H607.348C607.081 265.442 606.817 265.388 606.57 265.284C606.324 265.18 606.1 265.027 605.911 264.835C605.723 264.642 605.573 264.413 605.471 264.162C605.369 263.91 605.316 263.641 605.316 263.368C605.316 263.096 605.369 262.826 605.471 262.575C605.573 262.323 605.723 262.094 605.911 261.902C606.1 261.709 606.324 261.557 606.57 261.452C606.817 261.348 607.081 261.294 607.348 261.294H635.466C635.733 261.294 635.997 261.348 636.243 261.452C636.49 261.557 636.714 261.709 636.903 261.902C637.091 262.094 637.241 262.323 637.343 262.575C637.445 262.826 637.498 263.096 637.498 263.368C637.498 263.641 637.445 263.91 637.343 264.162C637.241 264.413 637.091 264.642 636.903 264.835C636.714 265.027 636.49 265.18 636.243 265.284C635.997 265.388 635.733 265.442 635.466 265.442Z" fill="#E6E6E6"/>
    <path d="M651.235 246.088H591.579C591.04 246.088 590.523 245.87 590.142 245.481C589.761 245.092 589.547 244.564 589.547 244.014C589.547 243.464 589.761 242.937 590.142 242.548C590.523 242.159 591.04 241.941 591.579 241.941H651.235C651.774 241.941 652.291 242.159 652.672 242.548C653.053 242.937 653.267 243.464 653.267 244.014C653.267 244.564 653.053 245.092 652.672 245.481C652.291 245.87 651.774 246.088 651.235 246.088Z" fill="#E6E6E6"/>
    <path d="M662.725 285.356H652.516C651.599 285.356 650.721 284.984 650.073 284.323C649.425 283.661 649.061 282.764 649.061 281.829C649.061 280.894 649.425 279.997 650.073 279.336C650.721 278.674 651.599 278.303 652.516 278.303H662.725C663.642 278.303 664.52 278.674 665.168 279.336C665.816 279.997 666.18 280.894 666.18 281.829C666.18 282.764 665.816 283.661 665.168 284.323C664.52 284.984 663.642 285.356 662.725 285.356Z" fill="#6C63FF"/>
    <path d="M551.785 259.761C561.6 259.761 569.557 251.64 569.557 241.623C569.557 231.605 561.6 223.485 551.785 223.485C541.97 223.485 534.013 231.605 534.013 241.623C534.013 251.64 541.97 259.761 551.785 259.761Z" fill="#6C63FF"/>
    <path d="M759.748 351.732H504.116C503.992 351.731 503.872 351.68 503.784 351.591C503.697 351.501 503.647 351.379 503.647 351.252C503.647 351.125 503.697 351.003 503.784 350.913C503.872 350.823 503.992 350.772 504.116 350.772H759.748C759.873 350.772 759.992 350.823 760.08 350.913C760.168 351.003 760.217 351.125 760.217 351.252C760.217 351.379 760.168 351.501 760.08 351.591C759.992 351.68 759.873 351.731 759.748 351.732Z" fill="#CACACA"/>
    <path d="M599.929 190.164C600.299 190.164 600.599 189.858 600.599 189.48C600.599 189.103 600.299 188.797 599.929 188.797C599.559 188.797 599.26 189.103 599.26 189.48C599.26 189.858 599.559 190.164 599.929 190.164Z" fill="white"/>
  </g>
  <g clip-path="url(#clip2_1_767)">
    <path d="M545.753 253.268H452.605C449.217 253.264 445.968 251.888 443.571 249.441C441.175 246.995 439.827 243.678 439.823 240.218V90.2065C439.827 86.7466 441.175 83.4294 443.571 80.9829C445.967 78.5363 449.216 77.1601 452.605 77.1562H545.753C549.142 77.1601 552.391 78.5363 554.787 80.9829C557.183 83.4294 558.531 86.7466 558.535 90.2065V240.218C558.531 243.678 557.183 246.995 554.787 249.441C552.391 251.888 549.142 253.264 545.753 253.268Z" fill="#E6E6E6"/>
    <path d="M547.297 84.9434H452.43C451.369 84.9447 450.352 85.3755 449.602 86.1414C448.852 86.9072 448.43 87.9456 448.428 89.0287V240.996C448.43 242.079 448.852 243.117 449.602 243.883C450.352 244.648 451.369 245.079 452.43 245.081H547.297C548.358 245.08 549.375 244.649 550.125 243.883C550.876 243.117 551.298 242.079 551.299 240.996V89.0287C551.298 87.9456 550.876 86.9072 550.125 86.1414C549.375 85.3755 548.358 84.9447 547.297 84.9434Z" fill="white"/>
    <path d="M454.882 77.1561C454.882 76.8914 454.986 76.6376 455.169 76.4505C455.352 76.2633 455.601 76.158 455.86 76.1577H462.509C462.769 76.1577 463.018 76.2629 463.201 76.4501C463.384 76.6374 463.487 76.8913 463.487 77.1561C463.487 77.4209 463.384 77.6748 463.201 77.862C463.018 78.0493 462.769 78.1544 462.509 78.1544H455.86C455.601 78.1541 455.352 78.0488 455.169 77.8617C454.986 77.6745 454.882 77.4208 454.882 77.1561Z" fill="#E6E6E6"/>
    <path d="M465.834 77.1561C465.834 76.8914 465.938 76.6376 466.121 76.4505C466.304 76.2633 466.553 76.158 466.812 76.1577H473.461C473.721 76.1577 473.97 76.2629 474.153 76.4501C474.336 76.6374 474.439 76.8913 474.439 77.1561C474.439 77.4209 474.336 77.6748 474.153 77.862C473.97 78.0493 473.721 78.1544 473.461 78.1544H466.812C466.553 78.1541 466.304 78.0489 466.121 77.8617C465.938 77.6745 465.834 77.4208 465.834 77.1561Z" fill="#E6E6E6"/>
    <path d="M531.546 77.1561C531.546 76.8914 531.65 76.6376 531.833 76.4505C532.016 76.2633 532.265 76.158 532.524 76.1577H539.173C539.433 76.1577 539.682 76.2629 539.865 76.4501C540.048 76.6374 540.151 76.8913 540.151 77.1561C540.151 77.4209 540.048 77.6748 539.865 77.862C539.682 78.0493 539.433 78.1544 539.173 78.1544H532.524C532.265 78.1541 532.016 78.0489 531.833 77.8617C531.65 77.6745 531.546 77.4208 531.546 77.1561Z" fill="#E6E6E6"/>
    <path d="M513.01 241.95C513.01 243.001 512.99 244.047 512.943 245.081H452.43C451.369 245.079 450.352 244.649 449.602 243.883C448.852 243.117 448.43 242.079 448.428 240.996V164.505C466.449 167.478 482.844 176.903 494.678 191.094C506.512 205.285 513.01 223.313 513.01 241.95Z" fill="#F2F2F2"/>
    <path d="M510.955 123.996H488.386C487.359 123.996 486.527 124.846 486.527 125.895V128.264C486.527 129.312 487.359 130.162 488.386 130.162H510.955C511.982 130.162 512.814 129.312 512.814 128.264V125.895C512.814 124.846 511.982 123.996 510.955 123.996Z" fill="#6C63FF"/>
    <path d="M525.299 136.328H474.043C473.016 136.328 472.183 137.178 472.183 138.227V140.596C472.183 141.645 473.016 142.495 474.043 142.495H525.299C526.326 142.495 527.158 141.645 527.158 140.596V138.227C527.158 137.178 526.326 136.328 525.299 136.328Z" fill="#E6E6E6"/>
    <path d="M525.299 148.661H474.043C473.016 148.661 472.183 149.511 472.183 150.559V152.928C472.183 153.977 473.016 154.827 474.043 154.827H525.299C526.326 154.827 527.158 153.977 527.158 152.928V150.559C527.158 149.511 526.326 148.661 525.299 148.661Z" fill="#E6E6E6"/>
    <path d="M516.522 234.695C516.228 234.709 515.937 234.63 515.688 234.47C515.44 234.309 515.246 234.074 515.132 233.797C515.019 233.52 514.991 233.214 515.054 232.921C515.116 232.627 515.266 232.36 515.482 232.156L515.58 231.757C515.567 231.725 515.554 231.693 515.541 231.662C515.245 230.948 514.749 230.339 514.115 229.912C513.481 229.485 512.738 229.259 511.979 229.261C511.219 229.264 510.478 229.496 509.847 229.928C509.216 230.36 508.725 230.972 508.434 231.689C507.271 234.547 505.791 237.41 505.427 240.433C505.267 241.768 505.334 243.123 505.627 244.435C502.897 238.354 501.479 231.746 501.47 225.056C501.469 223.378 501.561 221.701 501.744 220.032C501.895 218.665 502.104 217.307 502.372 215.959C503.836 208.645 506.978 201.789 511.54 195.955C513.748 194.725 515.534 192.833 516.657 190.535C517.064 189.709 517.351 188.827 517.51 187.917C517.261 187.95 517.008 187.971 516.759 187.988C516.681 187.992 516.6 187.996 516.522 188L516.493 188.002C516.219 188.014 515.948 187.946 515.711 187.804C515.475 187.663 515.283 187.455 515.16 187.205C515.036 186.955 514.986 186.674 515.016 186.396C515.045 186.118 515.153 185.854 515.325 185.637C515.433 185.502 515.541 185.367 515.648 185.232C515.812 185.023 515.979 184.819 516.142 184.611C516.161 184.591 516.179 184.57 516.195 184.548C516.383 184.31 516.571 184.077 516.759 183.839C516.416 183.296 515.955 182.841 515.411 182.509C513.529 181.384 510.932 182.163 509.572 183.902C508.208 185.64 507.951 188.079 508.424 190.252C508.89 192.1 509.661 193.854 510.703 195.438C510.601 195.571 510.495 195.701 510.393 195.834C508.526 198.284 506.9 200.915 505.536 203.689C505.868 200.581 505.472 197.438 504.382 194.517C503.276 191.794 501.205 189.502 499.38 187.148C497.189 184.321 492.695 185.555 492.309 189.139C492.305 189.173 492.302 189.208 492.298 189.243C492.569 189.399 492.835 189.564 493.094 189.74C493.42 189.962 493.673 190.28 493.819 190.651C493.965 191.023 493.998 191.431 493.913 191.822C493.828 192.212 493.63 192.568 493.344 192.842C493.057 193.115 492.697 193.295 492.309 193.356L492.27 193.362C492.366 194.359 492.537 195.347 492.78 196.318C493.485 199.028 494.731 201.56 496.439 203.755C498.147 205.95 500.281 207.762 502.707 209.076C502.867 209.159 503.022 209.242 503.181 209.322C501.811 213.285 500.952 217.414 500.625 221.604C500.44 224.076 500.45 226.559 500.657 229.03L500.645 228.942C500.122 226.195 498.687 223.717 496.582 221.925C493.455 219.303 489.037 218.337 485.664 216.229C485.306 215.994 484.889 215.869 484.463 215.868C484.037 215.867 483.619 215.99 483.26 216.223C482.9 216.456 482.613 216.79 482.433 217.184C482.253 217.578 482.187 218.017 482.243 218.448C482.247 218.478 482.252 218.509 482.257 218.54C482.76 218.749 483.249 218.99 483.723 219.261C483.994 219.417 484.259 219.583 484.518 219.758C484.845 219.98 485.097 220.298 485.243 220.67C485.389 221.041 485.422 221.449 485.337 221.84C485.253 222.231 485.054 222.587 484.768 222.86C484.482 223.134 484.121 223.313 483.734 223.374L483.694 223.38C483.666 223.384 483.641 223.389 483.612 223.393C484.472 225.487 485.678 227.415 487.177 229.092C489.03 231.122 491.27 232.744 493.758 233.859C496.247 234.974 498.932 235.558 501.65 235.575H501.654C502.391 238.848 503.46 242.034 504.843 245.081H516.236C516.277 244.952 516.314 244.819 516.351 244.689C515.296 244.757 514.237 244.693 513.198 244.498C514.043 243.439 514.889 242.371 515.734 241.312C515.753 241.292 515.771 241.272 515.787 241.25C516.216 240.708 516.649 240.17 517.077 239.628L517.078 239.627C517.101 237.966 516.914 236.308 516.522 234.695ZM503.475 208.492L503.481 208.484L503.475 208.5V208.492ZM500.951 231.719L500.853 231.494C500.858 231.331 500.858 231.168 500.853 231.002C500.853 230.956 500.845 230.91 500.845 230.864C500.882 231.152 500.915 231.439 500.955 231.727L500.951 231.719Z" fill="#6C63FF"/>
    <path d="M542.555 98.3601H457.172C456.987 98.356 456.811 98.2782 456.682 98.1433C456.553 98.0085 456.48 97.8273 456.48 97.6387C456.48 97.4501 456.553 97.2689 456.682 97.1341C456.811 96.9992 456.987 96.9214 457.172 96.9172H542.555C542.74 96.9214 542.916 96.9992 543.045 97.1341C543.174 97.2689 543.247 97.4501 543.247 97.6387C543.247 97.8273 543.174 98.0085 543.045 98.1433C542.916 98.2782 542.74 98.356 542.555 98.3601Z" fill="#CACACA"/>
    <path d="M461.727 94.831C462.874 94.831 463.804 93.8605 463.804 92.6633C463.804 91.4661 462.874 90.4956 461.727 90.4956C460.58 90.4956 459.65 91.4661 459.65 92.6633C459.65 93.8605 460.58 94.831 461.727 94.831Z" fill="#3F3D56"/>
    <path d="M468.902 94.831C470.049 94.831 470.979 93.8605 470.979 92.6633C470.979 91.4661 470.049 90.4956 468.902 90.4956C467.755 90.4956 466.825 91.4661 466.825 92.6633C466.825 93.8605 467.755 94.831 468.902 94.831Z" fill="#3F3D56"/>
    <path d="M476.077 94.831C477.224 94.831 478.154 93.8605 478.154 92.6633C478.154 91.4661 477.224 90.4956 476.077 90.4956C474.93 90.4956 474 91.4661 474 92.6633C474 93.8605 474.93 94.831 476.077 94.831Z" fill="#3F3D56"/>
    <path d="M539.218 91.333H534.57C534.478 91.3349 534.39 91.3735 534.326 91.4407C534.261 91.5079 534.225 91.5982 534.225 91.6923C534.225 91.7864 534.261 91.8767 534.326 91.9439C534.39 92.0111 534.478 92.0498 534.57 92.0516H539.218C539.31 92.0498 539.398 92.0111 539.462 91.9439C539.527 91.8767 539.563 91.7864 539.563 91.6923C539.563 91.5982 539.527 91.5079 539.462 91.4407C539.398 91.3735 539.31 91.3349 539.218 91.333Z" fill="#3F3D56"/>
    <path d="M539.218 92.6816H534.57C534.478 92.6835 534.39 92.7222 534.326 92.7893C534.261 92.8565 534.225 92.9469 534.225 93.0409C534.225 93.135 534.261 93.2254 534.326 93.2925C534.39 93.3597 534.478 93.3984 534.57 93.4002H539.218C539.31 93.3984 539.398 93.3597 539.462 93.2925C539.527 93.2254 539.563 93.135 539.563 93.0409C539.563 92.9469 539.527 92.8565 539.462 92.7893C539.398 92.7222 539.31 92.6835 539.218 92.6816Z" fill="#3F3D56"/>
    <path d="M539.218 94.0286H534.57C534.478 94.0304 534.39 94.0691 534.326 94.1363C534.261 94.2034 534.225 94.2938 534.225 94.3879C534.225 94.4819 534.261 94.5723 534.326 94.6395C534.39 94.7066 534.478 94.7453 534.57 94.7472H539.218C539.31 94.7453 539.398 94.7066 539.462 94.6395C539.527 94.5723 539.563 94.4819 539.563 94.3879C539.563 94.2938 539.527 94.2034 539.462 94.1363C539.398 94.0691 539.31 94.0304 539.218 94.0286Z" fill="#3F3D56"/>
    <path d="M400.683 164.562H351.18C350.48 164.563 349.809 164.848 349.314 165.355C348.82 165.861 348.542 166.547 348.543 167.262V247.102H403.328V167.262C403.328 166.907 403.259 166.556 403.127 166.228C402.994 165.901 402.799 165.603 402.554 165.353C402.308 165.102 402.016 164.903 401.696 164.767C401.375 164.632 401.031 164.562 400.683 164.562ZM376.098 209.927C374.55 209.919 373.068 209.288 371.973 208.171C370.878 207.053 370.26 205.539 370.253 203.959V194.75C370.254 193.168 370.871 191.651 371.967 190.533C373.063 189.415 374.549 188.787 376.098 188.787C377.648 188.787 379.134 189.415 380.23 190.533C381.326 191.651 381.943 193.168 381.944 194.75V203.959C381.937 205.539 381.319 207.053 380.224 208.171C379.129 209.288 377.646 209.919 376.098 209.927Z" fill="#E6E6E6"/>
    <path d="M348.373 244.549V252.252C348.374 252.651 348.529 253.033 348.806 253.316C349.082 253.598 349.457 253.757 349.848 253.758H402.022C402.413 253.756 402.787 253.596 403.063 253.314C403.339 253.032 403.496 252.65 403.497 252.252V244.549L348.373 244.549Z" fill="#CCCCCC"/>
    <path d="M482.656 39.9619H271.049C269.231 39.9649 267.488 40.7035 266.203 42.016C264.917 43.3285 264.194 45.1078 264.191 46.964V192.752C264.193 194.609 264.916 196.389 266.202 197.701C267.487 199.014 269.231 199.752 271.049 199.754H482.656C484.475 199.752 486.218 199.014 487.504 197.701C488.79 196.389 489.513 194.609 489.515 192.752V46.964C489.512 45.1078 488.788 43.3285 487.503 42.016C486.217 40.7035 484.475 39.9649 482.656 39.9619Z" fill="#E6E6E6"/>
    <path d="M480.89 45.0195H272.817C271.844 45.0217 270.911 45.418 270.223 46.1215C269.536 46.825 269.15 47.7782 269.149 48.772V190.947C269.151 191.939 269.538 192.891 270.226 193.593C270.913 194.295 271.845 194.69 272.817 194.691H480.89C481.862 194.69 482.794 194.295 483.482 193.593C484.169 192.891 484.556 191.939 484.558 190.947V48.772C484.558 47.7782 484.172 46.825 483.484 46.1215C482.796 45.418 481.864 45.0217 480.89 45.0195Z" fill="white"/>
    <path d="M484.558 48.772V190.947C484.556 191.939 484.169 192.891 483.482 193.593C482.794 194.295 481.862 194.69 480.89 194.691H407.519C399.402 187.006 392.743 177.859 387.876 167.708C387.556 167.054 387.251 166.392 386.961 165.722C382.526 155.897 379.841 145.344 379.031 134.558C378.977 133.896 378.932 133.234 378.901 132.565C378.802 130.852 378.756 129.116 378.756 127.372C378.742 115.774 380.887 104.279 385.078 93.4984C385.329 92.8289 385.596 92.1671 385.871 91.5053C394.305 71.2736 409.544 54.7865 428.839 45.0195H480.89C481.864 45.0217 482.796 45.418 483.484 46.1215C484.172 46.825 484.558 47.7782 484.558 48.772Z" fill="#6C63FF"/>
    <path d="M470.431 64.6078H275.738C275.535 64.6034 275.342 64.5182 275.201 64.3704C275.059 64.2227 274.98 64.0241 274.98 63.8173C274.98 63.6106 275.059 63.412 275.201 63.2642C275.342 63.1165 275.535 63.0313 275.738 63.0269H470.431C470.633 63.0313 470.826 63.1165 470.968 63.2642C471.109 63.412 471.189 63.6106 471.189 63.8173C471.189 64.0241 471.109 64.2227 470.968 64.3704C470.826 64.5182 470.633 64.6034 470.431 64.6078Z" fill="#CACACA"/>
    <path d="M288.991 58.9911C291.497 58.9911 293.528 56.8709 293.528 54.2553C293.528 51.6398 291.497 49.5195 288.991 49.5195C286.485 49.5195 284.453 51.6398 284.453 54.2553C284.453 56.8709 286.485 58.9911 288.991 58.9911Z" fill="#3F3D56"/>
    <path d="M304.665 58.9911C307.171 58.9911 309.203 56.8709 309.203 54.2553C309.203 51.6398 307.171 49.5195 304.665 49.5195C302.159 49.5195 300.128 51.6398 300.128 54.2553C300.128 56.8709 302.159 58.9911 304.665 58.9911Z" fill="#3F3D56"/>
    <path d="M320.34 58.9911C322.846 58.9911 324.877 56.8709 324.877 54.2553C324.877 51.6398 322.846 49.5195 320.34 49.5195C317.834 49.5195 315.803 51.6398 315.803 54.2553C315.803 56.8709 317.834 58.9911 320.34 58.9911Z" fill="#3F3D56"/>
    <path d="M460.993 50.6934H449.859C449.638 50.6978 449.428 50.7905 449.273 50.9514C449.119 51.1123 449.032 51.3287 449.032 51.5541C449.032 51.7795 449.119 51.9959 449.273 52.1568C449.428 52.3178 449.638 52.4104 449.859 52.4149H460.993C461.214 52.4104 461.424 52.3178 461.579 52.1568C461.733 51.9959 461.82 51.7795 461.82 51.5541C461.82 51.3287 461.733 51.1123 461.579 50.9514C461.424 50.7905 461.214 50.6978 460.993 50.6934Z" fill="#3F3D56"/>
    <path d="M460.993 53.9243H449.859C449.638 53.9288 449.428 54.0214 449.273 54.1824C449.119 54.3433 449.032 54.5597 449.032 54.7851C449.032 55.0105 449.119 55.2269 449.273 55.3878C449.428 55.5487 449.638 55.6414 449.859 55.6458H460.993C461.214 55.6414 461.424 55.5487 461.579 55.3878C461.733 55.2269 461.82 55.0105 461.82 54.7851C461.82 54.5597 461.733 54.3433 461.579 54.1824C461.424 54.0214 461.214 53.9288 460.993 53.9243Z" fill="#3F3D56"/>
    <path d="M460.993 57.1509H449.859C449.638 57.1553 449.428 57.248 449.273 57.4089C449.119 57.5699 449.032 57.7863 449.032 58.0116C449.032 58.237 449.119 58.4534 449.273 58.6144C449.428 58.7753 449.638 58.8679 449.859 58.8724H460.993C461.214 58.8679 461.424 58.7753 461.579 58.6144C461.733 58.4534 461.82 58.237 461.82 58.0116C461.82 57.7863 461.733 57.5699 461.579 57.4089C461.424 57.248 461.214 57.1553 460.993 57.1509Z" fill="#3F3D56"/>
    <path d="M335.35 110.789H308.124C307.097 110.789 306.265 111.639 306.265 112.687V115.646C306.265 116.695 307.097 117.545 308.124 117.545H335.35C336.377 117.545 337.21 116.695 337.21 115.646V112.687C337.21 111.639 336.377 110.789 335.35 110.789Z" fill="#6C63FF"/>
    <path d="M351.066 124.301H292.408C291.381 124.301 290.549 125.151 290.549 126.199V129.158C290.549 130.207 291.381 131.057 292.408 131.057H351.066C352.093 131.057 352.926 130.207 352.926 129.158V126.199C352.926 125.151 352.093 124.301 351.066 124.301Z" fill="#E6E6E6"/>
    <path d="M351.066 137.812H292.408C291.381 137.812 290.549 138.662 290.549 139.711V142.67C290.549 143.719 291.381 144.569 292.408 144.569H351.066C352.093 144.569 352.926 143.719 352.926 142.67V139.711C352.926 138.662 352.093 137.812 351.066 137.812Z" fill="#E6E6E6"/>
    <path d="M295.64 186.54C295.644 189.323 295.159 192.084 294.206 194.691H272.817C271.845 194.69 270.913 194.294 270.226 193.593C269.538 192.891 269.151 191.939 269.149 190.947V163.48C270.345 163.283 271.553 163.184 272.764 163.184C275.768 163.184 278.743 163.788 281.518 164.962C284.294 166.135 286.816 167.856 288.94 170.025C291.064 172.193 292.749 174.768 293.899 177.602C295.049 180.436 295.64 183.473 295.64 186.54Z" fill="#6C63FF"/>
    <path opacity="0.2" d="M484.749 93.4982V91.5051H452.028V68.4062H450.084V91.5051H412.582V68.4062H410.638V91.5051H385.871C385.596 92.1669 385.329 92.8286 385.078 93.4982H410.638V132.565H378.901C378.932 133.234 378.977 133.896 379.031 134.558H410.638V165.722H386.961C387.251 166.392 387.556 167.053 387.876 167.707H410.638V193.905H412.582V167.707H450.084V193.905H452.028V167.707H484.749V165.722H452.028C452.028 161.63 452.818 157.577 454.352 153.796C455.886 150.015 458.134 146.579 460.969 143.686C463.803 140.792 467.168 138.496 470.871 136.93C474.575 135.364 478.544 134.558 482.552 134.558H484.749V132.565H452.028V93.4982H484.749ZM450.084 165.722H412.582V134.558H450.084V165.722ZM450.084 132.565H412.582V131.786C412.582 121.631 416.533 111.893 423.566 104.712C430.599 97.532 440.138 93.4982 450.084 93.4982L450.084 132.565Z" fill="black"/>
    <path d="M458.404 179.941C457.986 179.961 457.573 179.849 457.22 179.621C456.867 179.392 456.591 179.059 456.43 178.665C456.269 178.272 456.23 177.837 456.319 177.42C456.408 177.004 456.62 176.625 456.927 176.335C456.978 176.127 457.015 175.977 457.066 175.768C457.048 175.723 457.03 175.678 457.011 175.632C455.135 171.065 448.777 171.097 446.917 175.671C445.266 179.73 443.164 183.797 442.647 188.089C442.419 189.986 442.515 191.91 442.931 193.773C439.053 185.138 437.04 175.752 437.027 166.252C437.026 163.868 437.156 161.486 437.415 159.116C437.63 157.174 437.928 155.246 438.309 153.331C440.387 142.943 444.849 133.207 451.329 124.921C454.465 123.174 457.001 120.488 458.596 117.224C459.173 116.05 459.581 114.798 459.808 113.505C459.454 113.553 459.094 113.582 458.741 113.606C458.63 113.612 458.514 113.618 458.404 113.624L458.363 113.626C457.974 113.643 457.588 113.546 457.252 113.345C456.916 113.145 456.644 112.849 456.469 112.494C456.294 112.139 456.223 111.74 456.265 111.345C456.307 110.95 456.459 110.576 456.704 110.267C456.857 110.076 457.01 109.884 457.163 109.692C457.395 109.396 457.633 109.106 457.865 108.81C457.892 108.782 457.917 108.752 457.94 108.721C458.207 108.383 458.474 108.052 458.741 107.714C458.254 106.943 457.599 106.296 456.827 105.825C454.153 104.227 450.464 105.334 448.533 107.803C446.596 110.272 446.231 113.736 446.903 116.821C447.478 119.462 448.73 121.884 450.14 124.187C449.995 124.377 449.844 124.56 449.699 124.75C447.048 128.229 444.738 131.966 442.802 135.905C443.273 131.492 442.711 127.027 441.162 122.879C439.592 119.012 436.65 115.756 434.059 112.414C430.947 108.399 424.565 110.151 424.016 115.24C424.011 115.29 424.006 115.339 424.001 115.388C424.386 115.61 424.763 115.845 425.131 116.094C425.594 116.41 425.953 116.861 426.16 117.389C426.368 117.916 426.415 118.496 426.294 119.051C426.174 119.606 425.892 120.111 425.485 120.5C425.079 120.888 424.567 121.143 424.017 121.229L423.96 121.238C424.097 122.654 424.34 124.058 424.685 125.437C425.686 129.285 427.455 132.881 429.882 135.999C432.308 139.117 435.339 141.69 438.784 143.555C439.01 143.674 439.231 143.792 439.457 143.905C437.511 149.534 436.291 155.398 435.826 161.349C435.563 164.86 435.579 168.386 435.873 171.894L435.855 171.77C435.113 167.869 433.075 164.349 430.085 161.805C425.644 158.08 419.37 156.709 414.579 153.715C412.273 152.274 409.318 154.136 409.72 156.866C409.727 156.91 409.733 156.953 409.74 156.997C410.454 157.294 411.149 157.636 411.822 158.021C412.207 158.243 412.583 158.478 412.952 158.727C413.415 159.043 413.774 159.494 413.981 160.022C414.189 160.549 414.235 161.129 414.115 161.684C413.995 162.239 413.713 162.744 413.306 163.133C412.9 163.521 412.388 163.776 411.838 163.862L411.781 163.871C411.741 163.877 411.706 163.883 411.665 163.889C412.885 166.864 414.598 169.602 416.728 171.983C419.36 174.866 422.54 177.17 426.074 178.753C429.609 180.336 433.422 181.166 437.282 181.191H437.288C438.335 185.839 439.853 190.363 441.817 194.691H457.998C458.056 194.508 458.108 194.318 458.161 194.135C456.663 194.231 455.159 194.139 453.683 193.862C454.884 192.358 456.084 190.842 457.285 189.338C457.312 189.31 457.337 189.281 457.36 189.25C457.969 188.48 458.584 187.716 459.193 186.946L459.193 186.945C459.226 184.586 458.96 182.232 458.404 179.941L458.404 179.941ZM439.874 142.727L439.883 142.715L439.874 142.738V142.727ZM436.29 175.714L436.151 175.394C436.157 175.163 436.157 174.932 436.151 174.695C436.151 174.63 436.14 174.565 436.14 174.5C436.192 174.908 436.238 175.317 436.296 175.726L436.29 175.714Z" fill="#2F2E41"/>
    <path d="M314.319 141.304V119.101C314.319 115.693 312.993 112.424 310.632 110.015C308.272 107.605 305.07 106.251 301.732 106.251H255.659C252.321 106.251 249.119 107.605 246.759 110.015C244.399 112.424 243.073 115.693 243.073 119.101V240.907C243.073 244.315 244.399 247.584 246.759 249.994C249.119 252.404 252.321 253.758 255.659 253.758H301.732C303.385 253.758 305.022 253.425 306.549 252.779C308.076 252.134 309.464 251.187 310.632 249.994C311.801 248.801 312.728 247.384 313.361 245.825C313.993 244.266 314.319 242.595 314.319 240.907V157.108C314.529 157.108 314.731 157.023 314.88 156.871C315.029 156.719 315.113 156.513 315.113 156.298V142.114C315.113 141.899 315.029 141.693 314.88 141.541C314.731 141.389 314.529 141.304 314.319 141.304Z" fill="#E6E6E6"/>
    <path d="M311.64 119.189V240.82C311.64 243.346 310.664 245.77 308.924 247.566C307.183 249.362 304.819 250.384 302.345 250.411C302.31 250.414 302.276 250.416 302.242 250.415H255.944C253.452 250.415 251.061 249.404 249.299 247.604C247.536 245.805 246.546 243.364 246.546 240.82V119.189C246.546 116.644 247.536 114.204 249.299 112.404C251.061 110.605 253.452 109.594 255.944 109.594H261.563C261.286 110.286 261.181 111.037 261.256 111.781C261.331 112.525 261.584 113.239 261.992 113.859C262.401 114.48 262.952 114.988 263.599 115.34C264.245 115.692 264.966 115.876 265.698 115.877H292.093C292.825 115.875 293.545 115.69 294.19 115.337C294.836 114.985 295.386 114.476 295.794 113.856C296.202 113.236 296.454 112.523 296.529 111.78C296.605 111.037 296.5 110.286 296.225 109.594H302.242C304.734 109.594 307.125 110.605 308.887 112.404C310.65 114.204 311.64 116.644 311.64 119.189Z" fill="white"/>
    <path d="M302.46 246.661C302.46 247.921 302.422 249.171 302.345 250.411C302.31 250.414 302.276 250.416 302.242 250.415H255.944C253.452 250.415 251.061 249.404 249.299 247.604C247.536 245.805 246.546 243.364 246.546 240.819V186.616C261.63 187.392 275.846 194.057 286.253 205.233C296.66 216.409 302.462 231.24 302.46 246.661Z" fill="#F2F2F2"/>
    <path d="M243.327 153.725C243.043 153.725 242.771 153.609 242.57 153.404C242.369 153.199 242.256 152.921 242.256 152.631V145.193C242.256 144.903 242.369 144.624 242.57 144.419C242.771 144.214 243.043 144.099 243.327 144.099C243.611 144.099 243.884 144.214 244.085 144.419C244.286 144.624 244.399 144.903 244.399 145.193V152.631C244.398 152.921 244.285 153.199 244.084 153.404C243.884 153.609 243.611 153.725 243.327 153.725Z" fill="#E6E6E6"/>
    <path d="M284.778 147.786H273.408C272.381 147.786 271.549 148.636 271.549 149.684V152.643C271.549 153.692 272.381 154.542 273.408 154.542H284.778C285.805 154.542 286.637 153.692 286.637 152.643V149.684C286.637 148.636 285.805 147.786 284.778 147.786Z" fill="#6C63FF"/>
    <path d="M300.494 161.298H257.692C256.665 161.298 255.833 162.148 255.833 163.196V166.155C255.833 167.204 256.665 168.054 257.692 168.054H300.494C301.521 168.054 302.353 167.204 302.353 166.155V163.196C302.353 162.148 301.521 161.298 300.494 161.298Z" fill="#E6E6E6"/>
    <path d="M300.494 174.81H257.692C256.665 174.81 255.833 175.66 255.833 176.708V179.667C255.833 180.716 256.665 181.566 257.692 181.566H300.494C301.521 181.566 302.353 180.716 302.353 179.667V176.708C302.353 175.66 301.521 174.81 300.494 174.81Z" fill="#E6E6E6"/>
    <path d="M290.195 243.493C289.999 243.502 289.805 243.45 289.64 243.343C289.474 243.236 289.344 243.079 289.269 242.895C289.193 242.71 289.175 242.506 289.217 242.31C289.258 242.115 289.358 241.937 289.502 241.801L289.567 241.535C289.559 241.514 289.55 241.492 289.541 241.471C289.344 240.995 289.013 240.59 288.591 240.305C288.169 240.02 287.673 239.87 287.167 239.872C286.661 239.874 286.167 240.028 285.747 240.316C285.326 240.604 284.999 241.012 284.805 241.489C284.03 243.394 283.044 245.302 282.801 247.317C282.694 248.207 282.739 249.11 282.934 249.984C281.114 245.932 280.17 241.527 280.164 237.069C280.163 235.95 280.224 234.833 280.346 233.721C280.447 232.809 280.586 231.905 280.765 231.006C281.74 226.131 283.834 221.562 286.875 217.674C288.347 216.854 289.537 215.594 290.285 214.062C290.556 213.511 290.748 212.924 290.854 212.317C290.688 212.339 290.519 212.353 290.353 212.364C290.301 212.367 290.247 212.37 290.195 212.373L290.176 212.373C289.993 212.382 289.812 212.336 289.655 212.242C289.497 212.148 289.369 212.009 289.287 211.843C289.205 211.676 289.172 211.489 289.191 211.303C289.211 211.118 289.283 210.942 289.398 210.798C289.469 210.708 289.541 210.618 289.613 210.528C289.722 210.389 289.833 210.252 289.942 210.114C289.955 210.1 289.966 210.086 289.977 210.072C290.103 209.913 290.228 209.758 290.353 209.599C290.125 209.237 289.817 208.934 289.455 208.713C288.2 207.963 286.469 208.482 285.563 209.641C284.654 210.8 284.483 212.425 284.798 213.873C285.109 215.105 285.622 216.274 286.317 217.33C286.249 217.419 286.178 217.505 286.11 217.594C284.866 219.226 283.782 220.98 282.874 222.829C283.095 220.757 282.831 218.662 282.104 216.716C281.367 214.901 279.987 213.373 278.771 211.805C278.449 211.383 278.012 211.069 277.516 210.901C277.019 210.733 276.485 210.719 275.981 210.861C275.476 211.003 275.024 211.294 274.682 211.699C274.34 212.103 274.123 212.601 274.058 213.131C274.056 213.154 274.053 213.177 274.051 213.201C274.232 213.305 274.408 213.415 274.581 213.532C274.799 213.68 274.967 213.892 275.064 214.139C275.162 214.387 275.184 214.659 275.127 214.919C275.071 215.18 274.938 215.417 274.748 215.599C274.557 215.782 274.317 215.901 274.058 215.942L274.032 215.946C274.096 216.61 274.21 217.269 274.372 217.916C274.842 219.722 275.672 221.409 276.811 222.873C277.949 224.336 279.371 225.543 280.988 226.419C281.094 226.474 281.198 226.53 281.304 226.582C280.391 229.224 279.818 231.976 279.6 234.768C279.477 236.416 279.484 238.071 279.622 239.717L279.614 239.659C279.265 237.828 278.309 236.176 276.906 234.982C274.822 233.235 271.878 232.591 269.63 231.186C269.391 231.029 269.113 230.946 268.829 230.945C268.545 230.944 268.267 231.027 268.027 231.182C267.787 231.338 267.596 231.56 267.476 231.822C267.356 232.085 267.312 232.377 267.349 232.665L267.359 232.726C267.694 232.865 268.02 233.026 268.336 233.207C268.516 233.311 268.693 233.421 268.866 233.538C269.083 233.686 269.252 233.898 269.349 234.146C269.446 234.393 269.468 234.665 269.412 234.926C269.355 235.186 269.223 235.423 269.032 235.605C268.842 235.788 268.601 235.907 268.343 235.948L268.317 235.952C268.298 235.955 268.281 235.958 268.262 235.96C268.835 237.356 269.638 238.641 270.638 239.759C271.873 241.112 273.365 242.193 275.024 242.936C276.682 243.679 278.472 244.068 280.283 244.08H280.286C280.778 246.261 281.49 248.384 282.412 250.415H290.005C290.032 250.329 290.056 250.24 290.081 250.154C289.378 250.199 288.672 250.156 287.98 250.026C288.543 249.32 289.107 248.609 289.67 247.903C289.682 247.89 289.694 247.876 289.705 247.861C289.991 247.5 290.28 247.142 290.565 246.78L290.565 246.78C290.581 245.673 290.456 244.568 290.195 243.493ZM281.5 226.03L281.504 226.024L281.5 226.035V226.03ZM279.818 241.509L279.753 241.359C279.755 241.251 279.755 241.143 279.753 241.031C279.753 241.001 279.747 240.97 279.747 240.94C279.772 241.131 279.793 241.323 279.821 241.515L279.818 241.509Z" fill="#2F2E41"/>
    <path d="M243.113 139.286C242.829 139.285 242.557 139.17 242.356 138.965C242.155 138.76 242.042 138.482 242.042 138.192V130.754C242.042 130.463 242.154 130.185 242.355 129.98C242.556 129.775 242.829 129.66 243.113 129.66C243.397 129.66 243.67 129.775 243.871 129.98C244.071 130.185 244.184 130.463 244.184 130.754V138.192C244.184 138.482 244.071 138.76 243.87 138.965C243.669 139.17 243.397 139.285 243.113 139.286Z" fill="#E6E6E6"/>
    <path d="M271.612 110.845C271.613 110.555 271.726 110.277 271.927 110.072C272.127 109.867 272.4 109.751 272.684 109.751H279.969C280.253 109.751 280.526 109.866 280.727 110.071C280.928 110.277 281.041 110.555 281.041 110.845C281.041 111.135 280.928 111.413 280.727 111.618C280.526 111.823 280.253 111.939 279.969 111.939H272.684C272.4 111.938 272.127 111.823 271.927 111.618C271.726 111.413 271.613 111.135 271.612 110.845Z" fill="white"/>
    <path d="M243.327 166.414C243.043 166.414 242.771 166.298 242.57 166.093C242.369 165.888 242.256 165.61 242.256 165.32V157.882C242.256 157.592 242.369 157.313 242.57 157.108C242.771 156.903 243.043 156.788 243.327 156.788C243.611 156.788 243.884 156.903 244.085 157.108C244.286 157.313 244.399 157.592 244.399 157.882V165.32C244.398 165.61 244.285 165.888 244.084 166.093C243.884 166.298 243.611 166.414 243.327 166.414Z" fill="#E6E6E6"/>
    <path d="M284.041 111.939C284.632 111.939 285.112 111.449 285.112 110.845C285.112 110.241 284.632 109.751 284.041 109.751C283.449 109.751 282.969 110.241 282.969 110.845C282.969 111.449 283.449 111.939 284.041 111.939Z" fill="white"/>
    <path d="M569.298 253.755L201.699 253.889C201.563 253.889 201.434 253.834 201.339 253.736C201.243 253.638 201.19 253.506 201.19 253.368C201.19 253.23 201.243 253.098 201.339 253C201.434 252.903 201.563 252.848 201.699 252.847L569.298 252.713C569.433 252.713 569.563 252.768 569.659 252.865C569.755 252.963 569.808 253.095 569.808 253.234C569.808 253.372 569.755 253.504 569.659 253.602C569.563 253.7 569.433 253.755 569.298 253.755Z" fill="#CACACA"/>
    <path d="M358.374 138.895L356.44 139.318C356.427 138.492 356.327 137.67 356.139 136.867C355.964 137.851 355.593 138.788 355.051 139.621L343.961 142.039L333.314 130.567C333.298 124.831 336.418 120.472 342.011 120.472C342.348 120.472 342.698 120.489 343.051 120.522C346.073 120.006 349.174 120.707 351.7 122.477C354.226 124.248 355.981 126.95 356.594 130.015C360.559 134.001 359.121 136.344 358.374 138.895Z" fill="#2F2E41"/>
    <path d="M363.826 273.05H367.848L369.762 257.208L363.825 257.209L363.826 273.05Z" fill="#FFB6B6"/>
    <path d="M362.828 271.024L369.187 270.636V273.418L375.232 277.681C375.531 277.891 375.756 278.194 375.874 278.544C375.993 278.894 375.998 279.274 375.89 279.628C375.782 279.981 375.566 280.291 375.274 280.51C374.982 280.73 374.628 280.848 374.265 280.848H366.695L365.39 278.097L364.881 280.848H362.026L362.828 271.024Z" fill="#2F2E41"/>
    <path d="M316.699 268.58L320.198 270.606L329.519 257.793L324.355 254.802L316.699 268.58Z" fill="#FFB6B6"/>
    <path d="M316.811 266.315L322.529 269.182L321.184 271.601L324.382 278.354C324.54 278.688 324.589 279.064 324.523 279.429C324.456 279.793 324.278 280.126 324.013 280.379C323.748 280.632 323.411 280.792 323.05 280.836C322.69 280.88 322.325 280.805 322.01 280.622L315.425 276.808L315.62 273.757L313.847 275.893L311.365 274.455L316.811 266.315Z" fill="#2F2E41"/>
    <path d="M378.694 141.67C378.179 141.746 377.686 141.937 377.251 142.228C376.815 142.52 376.448 142.906 376.174 143.358C375.9 143.81 375.727 144.318 375.666 144.847C375.606 145.375 375.659 145.91 375.823 146.415L369.668 151.854L371.993 156.48L380.58 148.673C381.392 148.336 382.055 147.706 382.443 146.903C382.831 146.1 382.916 145.18 382.684 144.317C382.452 143.453 381.917 142.707 381.182 142.219C380.447 141.732 379.561 141.536 378.694 141.67Z" fill="#FFB6B6"/>
    <path d="M372.496 160.376C370.443 163.551 365.841 166.617 359.011 169.335C358.634 169.49 358.23 169.562 357.825 169.549C357.419 169.535 357.021 169.436 356.655 169.257C354.077 168.059 352.425 163.607 352.27 163.175L347.278 156.3C347.19 156.2 344.856 153.495 345.123 150.836C345.183 150.279 345.36 149.742 345.643 149.261C345.926 148.781 346.307 148.368 346.761 148.052C350.54 145.192 359.009 155.126 360.108 156.446L365.635 153.008L369.662 151.173L372.913 147.135L377.491 151.913L373.374 158.6C373.154 159.227 372.859 159.823 372.496 160.376Z" fill="#2F2E41"/>
    <path d="M358.14 172.557C358.14 172.557 369.967 191.792 367.825 193.98C365.682 196.167 362.347 196.742 362.347 196.742L354.968 186.979L358.14 172.557Z" fill="#2F2E41"/>
    <path d="M347.682 146.287L353.257 150.137C355.848 151.926 357.796 154.529 358.807 157.552C359.818 160.574 359.836 163.851 358.859 166.884L357.289 171.755L347.682 146.287Z" fill="#2F2E41"/>
    <path d="M337.825 198.793L337.08 201.443L334.537 233.402L321.832 257.577L327.895 261.999L345.221 239.003L352.074 216.171L362.835 266.716L370.92 266.126L365.305 196.046L354.65 176.32L337.825 198.793Z" fill="#2F2E41"/>
    <path d="M346.734 147.255L354.493 153.729C356.195 155.149 357.422 157.077 358 159.243C358.263 160.227 358.388 161.243 358.371 162.263L358.14 176.32L365.253 195.73C365.253 195.73 345.968 203.168 343.397 196.605C340.825 190.042 346.734 147.255 346.734 147.255Z" fill="#6C63FF"/>
    <path d="M349.055 200.012C339.421 200.012 337.073 200.086 336.921 200.054L336.768 200.023V194.107L339.111 183.478C338.837 180.179 338.196 175.828 338.254 172.102C338.464 158.636 337.815 145.483 337.815 145.483L342.915 140.677L345.231 142.216L349.528 146.603C354.523 159.153 358.486 170.968 358.511 171.727L358.825 184.791L357.539 190.042C351.723 194.233 357.037 200.012 349.055 200.012Z" fill="#2F2E41"/>
    <path opacity="0.2" d="M339.977 157.214L338.805 164.677L346.734 168.016L339.977 157.214Z" fill="black"/>
    <path d="M347.964 139.277C352.251 139.277 355.727 135.729 355.727 131.352C355.727 126.974 352.251 123.426 347.964 123.426C343.677 123.426 340.201 126.974 340.201 131.352C340.201 135.729 343.677 139.277 347.964 139.277Z" fill="#FFB6B6"/>
    <path opacity="0.2" d="M334.957 171.565C337.023 174.008 339.825 175.68 342.923 176.32C346.022 176.959 349.24 176.529 352.073 175.098L353.763 174.244L334.957 171.565Z" fill="black"/>
    <path d="M361.969 169.741C361.623 169.344 361.196 169.029 360.717 168.819C360.239 168.608 359.721 168.508 359.201 168.524C358.68 168.54 358.169 168.672 357.704 168.912C357.239 169.151 356.831 169.492 356.509 169.909L348.671 167.663L346.172 172.193L357.285 175.207C358.008 175.713 358.888 175.93 359.758 175.818C360.628 175.706 361.427 175.272 362.005 174.598C362.582 173.925 362.898 173.058 362.891 172.163C362.885 171.268 362.557 170.406 361.969 169.741Z" fill="#FFB6B6"/>
    <path d="M343.265 174.768C339.539 174.769 334.497 172.538 328.511 168.217C328.178 167.981 327.896 167.677 327.683 167.324C327.471 166.971 327.332 166.577 327.277 166.166C326.835 163.311 329.564 159.45 329.831 159.08L332.699 151.038C332.732 150.908 333.657 147.428 335.977 146.19C336.466 145.935 337.003 145.79 337.551 145.766C338.1 145.742 338.647 145.84 339.155 146.052C343.575 147.695 340.124 160.384 339.65 162.049L345.506 164.863L349.225 167.283L354.317 167.827L352.935 174.36L345.2 174.538C344.567 174.696 343.917 174.773 343.265 174.768Z" fill="#2F2E41"/>
    <path d="M357.273 126.138C356.651 126.963 354.511 127.693 351.968 128.282C351.972 128.228 351.972 128.174 351.972 128.12C351.959 127.294 351.858 126.472 351.671 125.669C351.495 126.653 351.125 127.59 350.582 128.423C350.542 128.485 350.501 128.547 350.456 128.609C348.275 129.049 345.968 129.389 344.16 129.617C345.403 134.188 350.168 137.937 349.652 140.715L335.691 143.627C335.776 142.472 335.686 141.311 335.422 140.185C335.155 141.671 334.45 143.039 333.4 144.104L332.213 144.353L331.86 142.573C328.797 135.063 333.066 127.374 340.061 123.396C341.309 121.487 343.245 120.16 345.448 119.705L347.191 119.34C348.29 119.11 349.422 119.104 350.524 119.322C351.626 119.539 352.674 119.976 353.611 120.607C354.547 121.238 355.352 122.051 355.98 123C356.609 123.949 357.048 125.015 357.273 126.138Z" fill="#2F2E41"/>
    <path d="M390.625 269.823L390.831 265.084C392.983 263.909 395.384 263.289 397.824 263.276C394.465 266.08 394.885 271.484 392.608 275.254C391.889 276.425 390.921 277.415 389.777 278.151C388.632 278.888 387.339 279.352 385.995 279.509L383.184 281.266C382.799 279.071 382.884 276.816 383.434 274.658C383.983 272.5 384.985 270.489 386.369 268.764C387.156 267.804 388.057 266.949 389.052 266.219C389.725 268.031 390.625 269.823 390.625 269.823Z" fill="#F2F2F2"/>
  </g>
  <g clip-path="url(#clip3_1_767)">
    <path d="M36.1177 423.214L42.2931 423.214L45.2308 398.914L36.1165 398.914L36.1177 423.214Z" fill="#FFB6B6"/>
    <path d="M35.9004 429.787L54.8906 429.786V429.541C54.8903 425.376 51.5812 422.001 47.4991 422L44.0298 419.316L37.5578 422.001L35.9001 422.001L35.9004 429.787Z" fill="#2F2E41"/>
    <path d="M63.4954 423.214L69.6708 423.214L72.6085 398.914L63.4942 398.914L63.4954 423.214Z" fill="#FFB6B6"/>
    <path d="M63.2781 429.787L82.2683 429.786V429.541C82.268 425.376 78.9588 422.001 74.8768 422L71.4075 419.316L64.9355 422.001L63.2778 422.001L63.2781 429.787Z" fill="#2F2E41"/>
    <path d="M66.4382 287.601L30.8096 288.367C30.8096 288.367 24.4044 299.079 29.2947 314.192L28.7469 318.401L30.9971 324.905L32.1222 344.8L30.9971 347.861L31.7472 353.6C31.7472 353.6 28.7469 391.477 36.2476 410.608L45.2485 410.225L48.6239 360.314L46.7487 356.661L47.1237 355.13L51.6242 332.174L56.1246 344.035V350.625L60.25 355.513C60.25 355.513 58.7498 400.66 62.8753 409.842H72.9525L76.7516 348.626L73.0013 313.044L73.7513 310.749L72.6262 309.601L73.3763 305.775L66.4382 287.601Z" fill="#2F2E41"/>
    <path d="M51.2491 217.777L40.3731 215.098L37.3728 222.368C37.3728 222.368 21.8498 230.785 21.0997 242.263C21.0997 242.263 18.996 251.445 20.8712 255.654C22.7464 259.863 30.6221 273.254 30.6221 273.254C30.6221 273.254 23.4964 296.592 25.3716 297.74C27.2468 298.888 71.8762 296.592 71.8762 294.297C71.8762 292.001 64.4487 267.897 64.4487 267.897L62.8753 226.576L52.7493 222.75L51.2491 217.777Z" fill="#3F3D56"/>
    <path d="M22.2542 311.96C24.5305 310.789 25.4461 307.958 24.2991 305.636C24.1837 305.402 24.0477 305.186 23.9015 304.982L29.9534 262.652L21.5749 262.925L17.192 304.169C15.6035 305.544 15.0767 307.892 16.0555 309.873C17.2025 312.196 19.9777 313.13 22.2542 311.96Z" fill="#FFB6B6"/>
    <path d="M101.755 291.981C102.671 289.555 101.486 286.83 99.1074 285.895C98.868 285.8 98.6253 285.734 98.3821 285.682L75.0029 250.171L68.9745 256.113L92.8756 289.677C92.6033 291.783 93.7588 293.884 95.7883 294.682C98.1669 295.617 100.838 294.408 101.755 291.981Z" fill="#FFB6B6"/>
    <path d="M37.5216 251.975C39.8889 243.678 35.9571 235.213 27.4868 235.254C25.0386 235.266 23.1365 235.991 22.6094 237.997C20.7643 245.019 19.7582 255.618 19.7582 255.618L17.5695 266.902L18.8952 269.245L16.1314 276.808L17.4721 280.386L17.7619 298.656L24.5126 298.273L31.9505 284.345L34.7947 282.62C34.7947 282.62 32.5111 260.1 37.0536 253.616L37.5216 251.975Z" fill="#3F3D56"/>
    <path d="M67.7595 231.556C63.8122 223.911 53.7064 222.1 47.6417 228.132C45.8888 229.876 45.0142 231.745 46.0012 233.562C49.4557 239.92 57.463 246.766 57.463 246.766L67.3239 262.938L69.873 263.684L73.0351 271.082L79.8111 279.209L88.7859 284.038L94.0365 278.681L92.9215 271.796L79.41 253.43C79.41 253.43 69.6882 240.951 68.54 233.068L67.7595 231.556Z" fill="#3F3D56"/>
    <path d="M49.1825 215.54C48.9341 215.571 48.6865 215.594 48.4402 215.605C47.6737 215.648 46.9164 215.604 46.1867 215.477C43.9692 215.115 41.9548 214.043 40.4004 212.472C38.757 210.814 37.6324 208.601 37.3284 206.082C36.6162 200.136 40.7668 194.719 46.5957 193.992C52.3409 193.272 57.5781 197.371 58.4141 203.181C58.4272 203.271 58.4408 203.357 58.4502 203.447C59.162 209.397 55.0155 214.811 49.1825 215.54Z" fill="#FFB6B6"/>
    <path d="M60.8109 202.783C59.301 203.545 56.8339 201.15 55.889 202.528C55.7355 202.23 55.566 201.942 55.3985 201.67C55.2469 201.426 55.0302 200.906 54.7793 200.817C55.0968 201.598 55.0267 202.657 54.6973 203.563C53.2078 204.131 51.2582 202.874 49.8797 201.388C47.715 199.057 44.1806 205.034 45.0163 208.127C43.9527 206.802 41.6446 207.549 40.8626 209.064C40.0809 210.575 41.4017 211.786 41.6842 213.472L39.552 213.196C38.2067 211.859 38.3008 209.607 37.193 208.058C35.3426 205.465 34.6257 202.82 36.0167 200.144C37.2506 197.778 37.3659 194.716 39.6295 193.352C38.6405 192.859 42.1577 193.629 41.2182 192.022C40.2746 190.417 45.3043 190.223 45.6324 191.082C47.0697 189.327 48.5194 188.17 50.2873 189.577C52.0237 190.96 51.844 192.414 53.8834 192.284C54.8402 192.223 54.7352 194.043 55.3041 194.837C55.8696 195.626 58.0681 196.133 58.1751 196.048C58.7558 195.585 60.7313 199.531 60.7313 199.531C60.7313 199.531 62.3332 202.011 60.8109 202.783Z" fill="#2F2E41"/>
    <path d="M193.891 271.647C158.163 271.647 129.2 301.195 129.2 337.643C129.2 374.091 158.163 403.638 193.891 403.638C229.618 403.638 279.064 367.501 258.581 337.643C238.098 307.785 229.618 271.647 193.891 271.647Z" fill="#F2F2F2"/>
    <path d="M107.307 274.787C107.887 274.787 108.359 275.268 108.359 275.86V310.199C108.359 310.791 107.887 311.272 107.307 311.272C106.727 311.272 106.255 310.791 106.255 310.199V275.86C106.255 275.268 106.727 274.787 107.307 274.787Z" fill="#3F3D56"/>
    <path d="M284.023 249.033C284.603 249.033 285.075 249.514 285.075 250.106V258.691C285.075 259.282 284.603 259.764 284.023 259.764C283.443 259.764 282.971 259.282 282.971 258.691V250.106C282.971 249.514 283.443 249.033 284.023 249.033Z" fill="#3F3D56"/>
    <path d="M284.023 274.787C284.603 274.787 285.075 275.268 285.075 275.86V292.493C285.075 293.085 284.603 293.566 284.023 293.566C283.443 293.566 282.971 293.085 282.971 292.493V275.86C282.971 275.268 283.443 274.787 284.023 274.787Z" fill="#3F3D56"/>
    <path d="M284.023 298.395C284.603 298.395 285.075 298.876 285.075 299.468V316.101C285.075 316.693 284.603 317.174 284.023 317.174C283.443 317.174 282.971 316.693 282.971 316.101V299.468C282.971 298.876 283.443 298.395 284.023 298.395Z" fill="#3F3D56"/>
    <path d="M189.683 215.23C190.263 215.23 190.735 215.711 190.735 216.303V232.936C190.735 233.528 190.263 234.009 189.683 234.009C189.103 234.009 188.631 233.528 188.631 232.936V216.303C188.631 215.711 189.103 215.23 189.683 215.23Z" fill="#3F3D56"/>
    <path d="M28.537 421.064C27.4504 421.133 26.8499 419.756 27.672 418.953L27.7538 418.622C27.743 418.595 27.7322 418.569 27.7213 418.542C26.6225 415.869 22.8984 415.888 21.809 418.565C20.842 420.941 19.6108 423.321 19.3077 425.833C19.1718 426.942 19.2329 428.071 19.4741 429.159C17.2084 424.11 16.016 418.597 16.016 413.052C16.016 411.659 16.0908 410.266 16.2436 408.876C16.3693 407.739 16.5426 406.61 16.7668 405.49C17.9794 399.439 20.6053 393.676 24.393 388.863C26.2138 387.847 27.7322 386.26 28.6494 384.358C28.9789 383.671 29.2371 382.933 29.3593 382.181C29.1521 382.209 28.578 378.99 28.7343 378.792C28.4455 378.345 27.9287 378.123 27.6133 377.687C26.0448 375.517 23.8837 375.896 22.7556 378.844C20.3456 380.085 20.3223 382.143 21.801 384.122C22.7418 385.381 22.8711 387.085 23.6966 388.433C23.6116 388.544 23.5233 388.651 23.4384 388.762C21.881 390.8 20.5341 392.99 19.3986 395.291C19.7195 392.734 19.2457 389.653 18.438 387.667C17.5186 385.404 15.7952 383.499 14.2776 381.542C12.4547 379.193 8.71664 380.218 8.39547 383.197C8.39235 383.226 8.38933 383.254 8.38635 383.283C8.61176 383.413 8.83262 383.551 9.04834 383.696C10.2788 384.527 9.85352 386.472 8.3956 386.702L8.3626 386.707C8.44413 387.535 8.58342 388.357 8.78719 389.164C6.84028 396.845 11.0435 399.643 17.0452 399.769C17.1777 399.838 17.3068 399.907 17.4393 399.973C16.8312 401.72 16.3454 403.511 15.9854 405.327C15.6627 406.932 15.4385 408.554 15.3128 410.182C15.1565 412.237 15.1701 414.303 15.34 416.354L15.3298 416.282C14.8984 414.022 13.6958 411.912 11.9498 410.449C9.34867 408.27 5.67383 407.467 2.8677 405.715C1.5169 404.871 -0.214016 405.961 0.0217372 407.559L0.0331972 407.635C0.45102 407.809 0.858637 408.01 1.25271 408.235C1.47812 408.365 1.69894 408.502 1.91469 408.648C3.14512 409.478 2.71988 411.424 1.26195 411.654L1.22892 411.659C1.20513 411.662 1.18475 411.666 1.16103 411.669C1.87777 413.405 2.87647 415.017 4.12657 416.406C5.34393 423.112 10.5725 423.748 16.1654 421.795H16.1688C16.7803 424.512 17.6737 427.167 18.8219 429.697H28.2995C28.3335 429.589 28.364 429.478 28.3946 429.371C27.5182 429.426 26.6349 429.374 25.7721 429.211C26.4753 428.331 27.1784 427.444 27.8816 426.564C27.8986 426.547 27.9122 426.529 27.9258 426.512C28.2825 426.061 28.6425 425.614 28.9992 425.164L28.9994 425.163C29.0217 423.78 28.859 422.402 28.537 421.064Z" fill="#F2F2F2"/>
    <path d="M297.056 429.725C297.056 430.08 296.778 430.364 296.431 430.364H0.69966C0.352555 430.364 0.0737899 430.08 0.0737899 429.725C0.0737899 429.371 0.352555 429.087 0.69966 429.087H296.431C296.778 429.087 297.056 429.371 297.056 429.725Z" fill="#CCCCCC"/>
    <path d="M222.175 333.194H258.581V332.121H222.175C219.013 332.121 216.44 329.496 216.44 326.27V301.158H215.388V326.27C215.388 330.088 218.433 333.194 222.175 333.194Z" fill="#6C63FF"/>
    <path d="M152.71 387.63H235.511V388.703H152.71V387.63Z" fill="#6C63FF"/>
    <path d="M100.174 326.019H144.402C146.788 326.019 148.73 324.038 148.73 321.603V277.034C148.73 274.6 146.788 272.619 144.402 272.619H100.174C97.7877 272.619 95.846 274.6 95.846 277.034V321.603C95.846 324.038 97.7877 326.019 100.174 326.019Z" fill="#E6E6E6"/>
    <path d="M136.165 273.934C142.392 273.934 147.441 279.084 147.441 285.437V320.658C147.441 322.892 145.665 324.703 143.475 324.703H116.431C105.775 324.703 97.1357 315.89 97.1357 305.019V277.98C97.1357 275.746 98.9112 273.934 101.101 273.934L136.165 273.934Z" fill="white"/>
    <path d="M110.443 286.886H134.226C134.68 286.886 135.049 286.51 135.049 286.047C135.049 285.584 134.68 285.207 134.226 285.207H110.443C109.989 285.207 109.62 285.584 109.62 286.047C109.62 286.51 109.989 286.886 110.443 286.886Z" fill="#E6E6E6"/>
    <path d="M110.443 304.787H134.226C134.68 304.787 135.049 304.411 135.049 303.948C135.049 303.485 134.68 303.108 134.226 303.108H110.443C109.989 303.108 109.62 303.485 109.62 303.948C109.62 304.411 109.989 304.787 110.443 304.787Z" fill="#E6E6E6"/>
    <path d="M100.785 295.843H143.884C144.338 295.843 144.707 295.466 144.707 295.003C144.707 294.54 144.338 294.164 143.884 294.164H100.785C100.331 294.164 99.9621 294.54 99.9621 295.003C99.9621 295.466 100.331 295.843 100.785 295.843Z" fill="#E6E6E6"/>
    <path d="M100.345 312.066H115.915C116.368 312.066 116.737 311.689 116.737 311.227C116.737 310.764 116.368 310.387 115.915 310.387H100.345C99.891 310.387 99.522 310.764 99.522 311.227C99.522 311.689 99.891 312.066 100.345 312.066Z" fill="#E6E6E6"/>
    <path d="M193.072 414.82H228.192C230.087 414.82 231.629 413.247 231.629 411.313V375.923C231.629 373.989 230.087 372.416 228.192 372.416H193.072C191.177 372.416 189.635 373.989 189.635 375.923V411.313C189.635 413.247 191.177 414.82 193.072 414.82Z" fill="#E6E6E6"/>
    <path d="M221.651 373.461C226.596 373.461 230.605 377.55 230.605 382.595V410.562C230.605 412.337 229.195 413.775 227.456 413.775H205.981C197.519 413.775 190.659 406.777 190.659 398.144V376.674C190.659 374.899 192.069 373.461 193.808 373.461L221.651 373.461Z" fill="white"/>
    <path d="M201.226 383.746H220.111C220.472 383.746 220.765 383.447 220.765 383.079C220.765 382.712 220.472 382.413 220.111 382.413H201.226C200.866 382.413 200.573 382.712 200.573 383.079C200.573 383.447 200.866 383.746 201.226 383.746Z" fill="#E6E6E6"/>
    <path d="M201.226 397.961H220.111C220.472 397.961 220.765 397.662 220.765 397.294C220.765 396.926 220.472 396.627 220.111 396.627H201.226C200.866 396.627 200.573 396.926 200.573 397.294C200.573 397.662 200.866 397.961 201.226 397.961Z" fill="#E6E6E6"/>
    <path d="M193.557 390.858H227.781C228.141 390.858 228.434 390.559 228.434 390.191C228.434 389.824 228.141 389.525 227.781 389.525H193.557C193.197 389.525 192.904 389.824 192.904 390.191C192.904 390.559 193.197 390.858 193.557 390.858Z" fill="#E6E6E6"/>
    <path d="M193.207 403.74H205.571C205.931 403.74 206.224 403.441 206.224 403.073C206.224 402.706 205.931 402.407 205.571 402.407H193.207C192.847 402.407 192.554 402.706 192.554 403.073C192.554 403.441 192.847 403.74 193.207 403.74Z" fill="#E6E6E6"/>
    <path d="M217.618 300.887H243.591C244.992 300.887 246.133 299.724 246.133 298.294V272.121C246.133 270.691 244.992 269.528 243.591 269.528H217.618C216.217 269.528 215.077 270.691 215.077 272.121V298.294C215.077 299.724 216.217 300.887 217.618 300.887Z" fill="#E6E6E6"/>
    <path d="M238.754 270.3C242.411 270.3 245.375 273.325 245.375 277.055V297.738C245.375 299.051 244.333 300.114 243.046 300.114H227.165C220.907 300.114 215.834 294.939 215.834 288.555V272.676C215.834 271.364 216.877 270.3 218.163 270.3L238.754 270.3Z" fill="white"/>
    <path d="M223.648 277.906H237.615C237.882 277.906 238.098 277.685 238.098 277.413C238.098 277.141 237.882 276.92 237.615 276.92H223.648C223.382 276.92 223.165 277.141 223.165 277.413C223.165 277.685 223.382 277.906 223.648 277.906Z" fill="#E6E6E6"/>
    <path d="M223.648 288.419H237.615C237.882 288.419 238.098 288.197 238.098 287.926C238.098 287.654 237.882 287.433 237.615 287.433H223.648C223.382 287.433 223.165 287.654 223.165 287.926C223.165 288.197 223.382 288.419 223.648 288.419Z" fill="#E6E6E6"/>
    <path d="M217.977 283.166H243.287C243.553 283.166 243.77 282.945 243.77 282.673C243.77 282.401 243.553 282.18 243.287 282.18H217.977C217.71 282.18 217.494 282.401 217.494 282.673C217.494 282.945 217.71 283.166 217.977 283.166Z" fill="#E6E6E6"/>
    <path d="M217.718 292.693H226.862C227.128 292.693 227.345 292.472 227.345 292.2C227.345 291.928 227.128 291.707 226.862 291.707H217.718C217.452 291.707 217.235 291.928 217.235 292.2C217.235 292.472 217.452 292.693 217.718 292.693Z" fill="#E6E6E6"/>
    <path d="M141.822 333.887C138.918 333.887 136.563 331.485 136.563 328.521C136.563 325.558 138.918 323.156 141.822 323.156C144.727 323.156 147.082 325.558 147.082 328.521C147.082 331.485 144.727 333.887 141.822 333.887Z" fill="#6C63FF"/>
    <path d="M215.98 306.523C213.075 306.523 210.721 304.121 210.721 301.158C210.721 298.194 213.075 295.792 215.98 295.792C218.885 295.792 221.239 298.194 221.239 301.158C221.239 304.121 218.885 306.523 215.98 306.523Z" fill="#6C63FF"/>
    <path d="M190.735 380.03C187.83 380.03 185.475 377.628 185.475 374.665C185.475 371.702 187.83 369.299 190.735 369.299C193.64 369.299 195.994 371.702 195.994 374.665C195.994 377.628 193.64 380.03 190.735 380.03Z" fill="#6C63FF"/>
    <path d="M179.374 231.258C175.754 231.258 172.819 228.327 172.819 224.711C172.819 221.096 175.754 218.165 179.374 218.165C182.994 218.165 185.929 221.096 185.929 224.711C185.929 228.327 182.994 231.258 179.374 231.258Z" fill="#F2F2F2"/>
    <path d="M126.826 222.472H162.109C163.319 222.472 164.304 221.467 164.304 220.232C164.304 218.997 163.319 217.993 162.109 217.993H126.826C125.615 217.993 124.631 218.997 124.631 220.232C124.631 221.467 125.615 222.472 126.826 222.472Z" fill="#F2F2F2"/>
    <path d="M99.2911 230.052H162.109C163.319 230.052 164.304 229.047 164.304 227.812C164.304 226.577 163.319 225.573 162.109 225.573H99.2911C98.0807 225.573 97.0959 226.577 97.0959 227.812C97.0959 229.047 98.0807 230.052 99.2911 230.052Z" fill="#F2F2F2"/>
    <path d="M274.252 258.77C271.909 258.77 270.01 256.874 270.01 254.534C270.01 252.194 271.909 250.297 274.252 250.297C276.595 250.297 278.494 252.194 278.494 254.534C278.494 256.874 276.595 258.77 274.252 258.77Z" fill="#F2F2F2"/>
    <path d="M240.244 253.084H263.078C263.862 253.084 264.499 252.434 264.499 251.635C264.499 250.836 263.862 250.186 263.078 250.186H240.244C239.46 250.186 238.823 250.836 238.823 251.635C238.823 252.434 239.46 253.084 240.244 253.084Z" fill="#F2F2F2"/>
    <path d="M222.424 257.99H263.078C263.862 257.99 264.499 257.34 264.499 256.54C264.499 255.741 263.862 255.091 263.078 255.091H222.424C221.64 255.091 221.003 255.741 221.003 256.54C221.003 257.34 221.64 257.99 222.424 257.99Z" fill="#F2F2F2"/>
    <path d="M146.975 409.54C144.632 409.54 142.732 407.644 142.732 405.304C142.732 402.964 144.632 401.067 146.975 401.067C149.318 401.067 151.217 402.964 151.217 405.304C151.217 407.644 149.318 409.54 146.975 409.54Z" fill="#F2F2F2"/>
    <path d="M112.966 403.854H135.801C136.584 403.854 137.221 403.204 137.221 402.405C137.221 401.606 136.584 400.956 135.801 400.956H112.966C112.183 400.956 111.546 401.606 111.546 402.405C111.546 403.204 112.183 403.854 112.966 403.854Z" fill="#F2F2F2"/>
    <path d="M95.1462 408.76H135.801C136.584 408.76 137.221 408.11 137.221 407.31C137.221 406.511 136.584 405.861 135.801 405.861H95.1462C94.3628 405.861 93.7254 406.511 93.7254 407.31C93.7254 408.11 94.3628 408.76 95.1462 408.76Z" fill="#F2F2F2"/>
    <path d="M197.967 272.635H199.019V323.607H197.967V272.635Z" fill="#E6E6E6"/>
    <path d="M198.493 326.826C196.75 326.826 195.337 325.385 195.337 323.607C195.337 321.829 196.75 320.387 198.493 320.387C200.235 320.387 201.648 321.829 201.648 323.607C201.648 325.385 200.235 326.826 198.493 326.826Z" fill="#E6E6E6"/>
    <path d="M150.632 363.848C148.889 363.848 147.476 362.406 147.476 360.628C147.476 358.851 148.889 357.409 150.632 357.409C152.375 357.409 153.788 358.851 153.788 360.628C153.788 362.406 152.375 363.848 150.632 363.848Z" fill="#E6E6E6"/>
    <path d="M235.834 319.851C234.092 319.851 232.679 318.41 232.679 316.632C232.679 314.854 234.092 313.412 235.834 313.412C237.577 313.412 238.99 314.854 238.99 316.632C238.99 318.41 237.577 319.851 235.834 319.851Z" fill="#E6E6E6"/>
    <path d="M237.001 316.637L254.258 317.17L254.226 318.243L236.969 317.71L237.001 316.637Z" fill="#E6E6E6"/>
    <path d="M124.96 372.953H151.129V360.629H150.077V371.88H124.96V372.953Z" fill="#E6E6E6"/>
    <path d="M237.13 355.003C235.387 355.003 233.974 353.562 233.974 351.784C233.974 350.006 235.387 348.564 237.13 348.564C238.872 348.564 240.285 350.006 240.285 351.784C240.285 353.562 238.872 355.003 237.13 355.003Z" fill="#E6E6E6"/>
    <path d="M211.77 364.108H237.938V351.784H236.886V363.035H211.77V364.108Z" fill="#E6E6E6"/>
    <path d="M131.698 339.534H257.389V340.607H131.698V339.534Z" fill="#E6E6E6"/>
  </g>
  <defs>
    <clipPath id="clip0_1_767">
      <rect width="455" height="387" fill="white" transform="translate(164)"/>
    </clipPath>
    <clipPath id="clip1_1_767">
      <rect width="287.605" height="241.415" fill="white" transform="translate(503.646 110.317)"/>
    </clipPath>
    <clipPath id="clip2_1_767">
      <rect width="368.62" height="241.415" fill="white" transform="translate(201.188 39.9619)"/>
    </clipPath>
    <clipPath id="clip3_1_767">
      <rect width="297.056" height="241.415" fill="white" transform="matrix(-1 0 0 1 297.056 188.949)"/>
    </clipPath>
  </defs>
</svg>
